<?xml version="1.0" standalone="no"?>
<!DOCTYPE svg PUBLIC "-//W3C//DTD SVG 20010904//EN"
 "http://www.w3.org/TR/2001/REC-SVG-20010904/DTD/svg10.dtd">
<svg version="1.0" xmlns="http://www.w3.org/2000/svg"
 width="665.000000pt" height="471.000000pt" viewBox="0 0 665.000000 471.000000"
 preserveAspectRatio="xMidYMid meet">

<g transform="translate(0.000000,471.000000) scale(0.100000,-0.100000)"
fill="#000000" stroke="none">
<path d="M1276 4347 c-16 -12 -15 -13 11 -12 23 0 28 -4 28 -25 0 -35 -41 -41
-54 -8 -9 21 -10 20 -10 -12 -1 -41 6 -53 36 -69 45 -23 103 14 103 67 0 30
-42 72 -73 72 -13 0 -31 -6 -41 -13z"/>
<path d="M840 4181 c0 -6 5 -13 10 -16 17 -10 -1 -27 -22 -22 -23 6 -20 -12 5
-27 36 -23 72 27 42 58 -18 18 -35 21 -35 7z"/>
<path d="M1755 4174 c-30 -31 6 -81 42 -58 25 15 28 33 5 27 -21 -5 -39 12
-22 22 13 8 13 25 1 25 -5 0 -17 -7 -26 -16z"/>
<path d="M1308 4140 c26 -11 28 -23 6 -41 -14 -11 -18 -10 -30 6 -8 10 -14 14
-14 9 0 -6 6 -18 13 -29 10 -13 21 -16 41 -11 24 6 27 11 24 39 -3 28 -7 32
-33 34 -27 2 -28 2 -7 -7z"/>
<path d="M622 4108 c-15 -15 -15 -51 0 -66 19 -19 45 -14 62 10 20 28 20 33 0
52 -18 19 -45 21 -62 4z m34 -9 c10 -17 -13 -36 -27 -22 -12 12 -4 33 11 33 5
0 12 -5 16 -11z"/>
<path d="M1945 4100 c-17 -18 -17 -21 -1 -45 27 -40 76 -28 76 20 0 44 -44 59
-75 25z m61 -1 c10 -17 -13 -36 -27 -22 -12 12 -4 33 11 33 5 0 12 -5 16 -11z"/>
<path d="M1314 4003 c0 -11 -6 -17 -16 -17 -10 1 -15 -2 -12 -7 3 -5 16 -9 30
-9 19 0 24 5 24 25 0 15 -6 25 -14 25 -8 0 -13 -8 -12 -17z"/>
<path d="M1089 3946 c19 -23 -1 -45 -24 -26 -18 15 -20 0 -2 -24 26 -36 84 4
61 42 -6 9 -20 19 -30 21 -16 3 -17 1 -5 -13z"/>
<path d="M1518 3949 c-33 -19 -15 -69 24 -69 9 0 22 9 27 19 9 16 8 18 -8 14
-21 -5 -37 12 -21 22 12 7 14 25 3 25 -5 0 -16 -5 -25 -11z"/>
<path d="M625 3919 c9 -27 -3 -43 -21 -28 -15 13 -17 9 -8 -15 8 -20 48 -21
64 -1 16 19 4 52 -21 58 -16 4 -19 2 -14 -14z"/>
<path d="M1979 3921 c-20 -16 -22 -23 -13 -38 16 -25 68 -24 73 2 3 16 1 17
-12 7 -19 -16 -31 0 -22 28 8 25 3 25 -26 1z"/>
<path d="M934 3916 c-3 -8 -4 -25 -2 -38 2 -19 9 -23 38 -23 33 0 35 2 35 35
0 32 -3 35 -33 38 -21 2 -34 -2 -38 -12z m42 -7 c10 -17 -13 -36 -27 -22 -12
12 -4 33 11 33 5 0 12 -5 16 -11z"/>
<path d="M1624 3916 c-3 -8 -4 -25 -2 -38 2 -19 9 -23 38 -23 33 0 35 2 35 35
0 32 -3 35 -33 38 -21 2 -34 -2 -38 -12z m61 -6 c11 -17 -5 -32 -21 -19 -7 6
-11 15 -8 20 7 12 21 11 29 -1z"/>
<path d="M1320 3908 c0 -9 -6 -19 -12 -21 -8 -3 -7 -6 4 -6 22 -1 33 18 19 32
-8 8 -11 7 -11 -5z"/>
<path d="M825 3881 c-3 -6 0 -8 8 -5 19 7 33 -14 19 -28 -8 -8 -16 -7 -27 2
-18 15 -20 0 -2 -24 26 -36 84 4 61 42 -13 20 -49 28 -59 13z"/>
<path d="M1752 3878 c-25 -25 -6 -68 30 -68 9 0 22 9 28 19 14 28 12 35 -5 21
-11 -9 -19 -10 -27 -2 -14 14 0 35 19 28 8 -3 11 -1 8 4 -8 14 -38 13 -53 -2z"/>
<path d="M1313 3835 c-8 -9 -9 -16 -3 -20 6 -3 13 1 16 10 9 21 2 26 -13 10z"/>
<path d="M716 3774 c-19 -18 -20 -28 -6 -55 12 -21 50 -25 68 -7 18 18 14 56
-7 68 -27 14 -37 13 -55 -6z m34 -20 c0 -14 -21 -19 -33 -7 -9 9 13 34 24 27
5 -3 9 -12 9 -20z"/>
<path d="M1855 3776 c-16 -12 -18 -19 -10 -43 13 -34 52 -44 72 -17 17 23 16
39 -3 58 -19 20 -35 20 -59 2z m59 -27 c-8 -14 -34 -11 -34 4 0 8 3 17 7 20 9
9 34 -13 27 -24z"/>
<path d="M1259 3676 c14 -17 -2 -31 -21 -20 -9 5 -9 2 1 -9 17 -21 40 -22 47
-2 7 16 -12 45 -28 45 -6 0 -6 -6 1 -14z"/>
<path d="M1346 3682 c-3 -5 0 -9 7 -8 6 0 12 -3 12 -9 0 -5 -6 -9 -13 -9 -7 1
-11 -3 -9 -10 2 -6 15 -11 28 -11 33 0 35 48 2 53 -11 2 -24 -1 -27 -6z"/>
<path d="M1160 3665 c11 -14 7 -19 -12 -16 -5 0 -8 -3 -8 -9 0 -13 37 -13 45
0 8 12 -12 40 -27 40 -6 0 -5 -7 2 -15z"/>
<path d="M1475 3661 c3 -6 -3 -15 -12 -21 -17 -10 -16 -11 2 -8 21 3 35 38 15
38 -6 0 -9 -4 -5 -9z"/>
<path d="M1535 3660 c-4 -6 1 -7 11 -3 12 4 15 2 12 -8 -3 -8 -11 -13 -17 -11
-7 1 -10 -2 -6 -8 10 -15 35 -12 42 6 9 23 -29 45 -42 24z"/>
<path d="M1076 3649 c3 -6 0 -15 -7 -20 -11 -7 -10 -9 4 -9 10 0 17 8 17 20 0
11 -5 20 -11 20 -5 0 -7 -5 -3 -11z"/>
<path d="M1635 3640 c4 -7 2 -16 -6 -21 -11 -7 -10 -9 4 -9 19 0 23 25 5 36
-7 5 -8 3 -3 -6z"/>
<path d="M993 3628 c1 -7 -4 -12 -11 -10 -8 1 -11 -2 -7 -8 11 -18 35 -11 35
10 0 11 -4 20 -10 20 -5 0 -9 -6 -7 -12z"/>
<path d="M1705 3610 c3 -5 -2 -10 -11 -10 -13 0 -15 -3 -7 -11 6 -6 16 -8 22
-5 14 9 14 36 0 36 -5 0 -7 -4 -4 -10z"/>
<path d="M922 3595 c-11 -12 -10 -15 3 -15 8 0 15 7 15 15 0 18 -2 18 -18 0z"/>
<path d="M960 3499 c-33 -11 -34 -12 -12 -20 12 -5 73 -18 135 -31 190 -37
423 -27 575 26 l35 12 -47 14 c-37 10 -62 11 -114 2 -122 -21 -196 -23 -302
-12 -171 18 -233 20 -270 9z"/>
<path d="M887 3473 c-11 -10 16 -51 41 -62 92 -43 417 -66 581 -42 141 21 258
68 233 93 -9 9 -16 7 -29 -4 -10 -9 -56 -26 -103 -38 -105 -28 -355 -39 -470
-21 -127 20 -211 42 -230 61 -10 10 -21 16 -23 13z"/>
<path d="M3438 3226 c-9 -10 -19 -11 -35 -3 -40 18 -71 -26 -37 -54 12 -10 20
-10 34 -1 11 6 32 9 48 6 37 -7 58 15 42 45 -12 24 -34 27 -52 7z"/>
<path d="M5118 3226 c-9 -10 -19 -11 -35 -3 -40 18 -71 -26 -37 -54 12 -10 20
-10 34 -1 11 6 32 9 48 6 37 -7 58 15 42 45 -12 24 -34 27 -52 7z"/>
<path d="M12 1943 c3 -1219 4 -1291 22 -1343 46 -139 122 -233 236 -290 118
-59 190 -73 496 -100 341 -30 438 -61 514 -163 35 -48 35 -48 50 -25 84 126
173 157 535 188 127 11 263 26 301 34 259 55 391 177 441 407 17 79 18 165 18
1329 l0 1245 -1308 3 -1308 2 3 -1287z m168 1197 c0 -11 5 -20 10 -20 6 0 10
-30 10 -69 0 -68 1 -70 28 -74 15 -2 -13 -4 -63 -4 -50 0 -78 2 -62 4 26 4 27
6 27 74 0 39 4 69 10 69 6 0 10 9 10 20 0 11 7 20 15 20 8 0 15 -9 15 -20z
m1140 0 c0 -11 4 -20 10 -20 5 0 10 -30 12 -67 3 -62 5 -68 28 -74 14 -4 -11
-7 -60 -7 -49 0 -74 3 -60 7 23 6 25 12 28 74 2 37 7 67 12 67 6 0 10 9 10 20
0 11 5 20 10 20 6 0 10 -9 10 -20z m1170 0 c0 -11 5 -20 10 -20 6 0 10 -30 10
-69 0 -64 2 -70 23 -74 12 -2 -16 -4 -63 -4 -47 0 -73 2 -57 4 26 4 27 6 27
74 0 39 4 69 10 69 6 0 10 9 10 20 0 11 7 20 15 20 8 0 15 -9 15 -20z m-160
-1208 c0 -603 -4 -988 -10 -1040 -14 -107 -41 -179 -89 -234 -85 -96 -211
-136 -481 -153 -216 -14 -351 -52 -403 -115 l-25 -29 -28 31 c-65 68 -148 91
-408 113 -275 24 -376 55 -461 142 -19 19 -44 55 -55 78 -49 102 -50 111 -50
1173 l0 992 1005 0 1005 0 0 -958z m-2150 68 c0 -11 5 -20 10 -20 6 0 10 -28
10 -65 0 -63 1 -65 25 -65 14 0 25 -4 25 -10 0 -6 -35 -10 -85 -10 -50 0 -85
4 -85 10 0 6 11 10 25 10 24 0 25 2 25 65 0 37 4 65 10 65 6 0 10 9 10 20 0
11 7 20 15 20 8 0 15 -9 15 -20z m2310 0 c0 -11 5 -20 10 -20 6 0 10 -28 10
-65 0 -58 2 -65 20 -65 11 0 20 -4 20 -10 0 -6 -33 -10 -80 -10 -47 0 -80 4
-80 10 0 6 11 10 25 10 24 0 25 2 25 65 0 37 4 65 10 65 6 0 10 9 10 20 0 11
7 20 15 20 8 0 15 -9 15 -20z m-2310 -1140 c0 -11 5 -20 10 -20 6 0 10 -28 10
-65 0 -63 1 -65 25 -65 14 0 25 -4 25 -10 0 -6 -35 -10 -85 -10 -50 0 -85 4
-85 10 0 6 11 10 25 10 24 0 25 2 25 65 0 37 4 65 10 65 6 0 10 9 10 20 0 11
7 20 15 20 8 0 15 -9 15 -20z m2310 0 c0 -11 5 -20 10 -20 6 0 10 -28 10 -65
0 -58 2 -65 20 -65 11 0 20 -4 20 -10 0 -6 -33 -10 -80 -10 -47 0 -80 4 -80
10 0 6 11 10 25 10 24 0 25 2 25 65 0 37 4 65 10 65 6 0 10 9 10 20 0 11 7 20
15 20 8 0 15 -9 15 -20z"/>
<path d="M1090 2790 c0 -11 12 -58 78 -295 28 -99 55 -199 61 -222 11 -38 15
-43 41 -43 l30 0 0 245 0 245 -38 0 c-29 0 -45 7 -63 26 -39 42 -109 71 -109
44z m79 -45 c29 -26 47 -35 75 -35 l36 0 0 -230 c0 -185 -3 -230 -13 -230 -12
0 -67 184 -155 513 -7 27 14 20 57 -18z"/>
<path d="M957 2762 c-7 -35 -45 -102 -58 -102 -21 0 -3 -36 120 -240 115 -191
132 -215 153 -212 12 2 27 8 32 13 9 8 -116 453 -150 537 -12 28 -17 32 -52
32 -35 0 -40 -3 -45 -28z m158 -257 c56 -191 75 -269 68 -276 -6 -6 -15 -9
-21 -5 -5 3 -64 97 -131 210 l-122 204 30 43 c17 23 31 50 31 59 0 23 9 30 40
30 26 0 28 -4 105 -265z"/>
<path d="M1330 2485 l0 -255 24 0 c27 0 25 -5 107 263 l42 138 -39 41 c-43 44
-83 68 -114 68 -20 0 -20 -5 -20 -255z m91 203 c23 -18 46 -40 52 -48 7 -11
-7 -71 -49 -207 -73 -240 -84 -244 -84 -29 0 202 9 316 26 316 7 0 31 -15 55
-32z"/>
<path d="M1500 2528 c-18 -62 -45 -156 -61 -208 -15 -52 -27 -96 -25 -97 1 -1
17 -4 35 -5 33 -3 33 -3 141 187 60 104 106 193 103 198 -11 17 -73 37 -116
37 l-44 0 -33 -112z m155 79 c24 -12 23 -12 -78 -192 -83 -146 -107 -181 -126
-183 -17 -3 -22 0 -19 10 3 7 29 94 58 193 29 99 55 184 58 189 6 10 77 0 107
-17z"/>
<path d="M860 2594 c16 -42 12 -117 -10 -158 l-19 -39 112 -117 c112 -118 112
-118 139 -104 16 8 28 19 28 24 0 14 -243 420 -252 420 -4 0 -3 -12 2 -26z
m139 -232 c50 -85 89 -158 86 -163 -14 -21 -39 -3 -132 97 l-100 106 19 36
c10 20 18 50 18 66 0 39 1 38 109 -142z"/>
<path d="M1616 2404 c-64 -102 -116 -190 -116 -195 0 -5 16 -17 36 -27 l36
-17 169 175 c93 96 171 183 175 194 9 27 -14 38 -71 32 -34 -4 -59 -1 -79 9
-15 8 -30 15 -31 15 -2 0 -55 -84 -119 -186z m222 146 c34 0 62 -4 62 -8 0
-13 -318 -346 -333 -350 -7 -1 -21 3 -31 11 -17 12 -11 25 90 186 93 148 111
172 128 167 12 -3 49 -6 84 -6z"/>
<path d="M1911 2473 c-13 -16 -87 -92 -164 -170 l-141 -142 24 -26 c13 -14 29
-24 36 -23 6 2 109 62 228 133 132 79 215 135 214 144 -2 7 -25 21 -52 32 -27
10 -63 32 -81 49 -17 16 -33 30 -36 30 -3 0 -16 -12 -28 -27z m99 -53 c22 -11
46 -20 54 -20 44 0 6 -29 -185 -144 -181 -108 -213 -124 -231 -115 -24 13 -27
9 176 216 113 115 121 121 134 102 7 -10 31 -28 52 -39z"/>
<path d="M722 2308 l3 -53 123 -74 123 -75 27 27 27 27 -100 100 -100 100 -53
0 -53 0 3 -52z m182 -57 c88 -88 97 -100 80 -109 -15 -8 -41 3 -131 56 l-113
66 0 43 c0 42 1 43 33 43 28 0 46 -14 131 -99z"/>
<path d="M1920 2221 c-123 -71 -226 -133 -227 -138 -2 -4 7 -20 20 -35 l22
-28 214 60 c118 33 222 60 231 60 29 0 43 26 35 67 -8 45 -51 143 -62 143 -4
0 -109 -59 -233 -129z m255 57 c32 -68 32 -106 3 -117 -13 -5 -115 -34 -228
-64 -189 -51 -206 -54 -223 -40 -9 9 -14 20 -9 25 7 7 423 247 430 248 2 0 14
-24 27 -52z"/>
<path d="M725 2170 c-8 -16 -33 -39 -55 -50 -22 -11 -40 -22 -40 -23 0 -2 61
-21 135 -42 l136 -39 24 29 c13 17 24 33 25 36 0 6 -195 119 -205 119 -3 0
-11 -13 -20 -30z m186 -113 l-20 -20 -82 22 c-139 38 -133 33 -91 78 l37 39
88 -49 89 -50 -21 -20z"/>
<path d="M1985 2060 c-181 -53 -230 -71 -229 -84 0 -9 1 -29 2 -46 l2 -30 240
0 c226 0 240 1 250 19 13 25 13 69 -1 148 -6 35 -16 63 -23 62 -6 0 -114 -31
-241 -69z m249 13 c3 -21 6 -64 6 -95 l0 -58 -229 0 -229 0 -6 26 c-4 15 -5
28 -3 30 5 6 428 133 443 133 6 1 14 -16 18 -36z"/>
<path d="M620 2021 c-6 -22 -22 -53 -35 -69 -33 -40 -26 -42 146 -42 l140 0
15 36 c8 20 13 38 11 41 -3 2 -56 17 -118 34 -63 16 -122 32 -131 35 -13 4
-19 -4 -28 -35z m155 -16 c55 -15 101 -28 103 -30 1 -1 -3 -15 -10 -29 -9 -21
-17 -26 -32 -22 -12 3 -69 6 -127 6 l-106 0 21 55 c15 38 26 53 36 50 8 -2 60
-16 115 -30z"/>
<path d="M429 1801 c-39 -40 -37 -54 14 -71 54 -19 59 -45 16 -94 l-31 -36 39
-39 c27 -28 51 -41 78 -46 155 -24 169 -29 182 -65 7 -19 12 -58 12 -86 1 -66
-24 -92 -98 -101 -76 -9 -117 -59 -76 -93 11 -9 15 -34 15 -92 0 -65 4 -85 21
-109 23 -33 67 -59 99 -59 27 0 55 -47 69 -118 14 -74 43 -120 78 -128 49 -10
51 -12 58 -44 15 -69 73 -74 261 -24 136 37 158 39 217 20 49 -15 56 -15 123
2 54 14 84 17 120 11 74 -12 178 -10 294 6 58 8 124 15 147 15 23 0 44 4 47 8
13 21 -32 79 -84 109 -30 18 -62 36 -70 41 -12 7 -8 17 18 58 40 60 46 83 38
137 -4 23 -7 47 -6 52 9 85 5 99 -31 123 l-37 24 15 46 c8 26 17 94 20 152 6
118 18 147 95 234 42 46 47 49 103 54 34 2 68 11 77 20 20 17 24 72 8 103 -10
19 -31 19 -906 19 l-896 0 -29 -29z m1822 -17 c21 -56 -12 -84 -100 -84 -46 0
-49 -2 -98 -62 -77 -97 -81 -105 -88 -203 -3 -49 -13 -124 -22 -164 l-15 -75
23 -17 c53 -40 60 -49 52 -72 -4 -12 -7 -43 -6 -69 2 -46 1 -47 -23 -37 -14 5
-37 8 -52 8 -27 -2 -27 -2 -2 -6 50 -8 90 -25 90 -37 0 -21 -31 -77 -40 -71
-4 3 -6 -3 -3 -14 7 -28 -8 -32 -71 -19 -46 10 -72 9 -144 -3 -85 -15 -236
-18 -337 -6 l-50 6 45 -10 c62 -15 291 -14 371 2 88 17 151 5 159 -31 4 -17
25 -35 68 -60 55 -31 101 -74 90 -85 -2 -2 -89 -14 -193 -26 -153 -17 -198
-19 -233 -10 -58 15 -102 14 -172 -6 -56 -15 -63 -15 -119 2 -66 20 -57 20
-227 -24 -78 -21 -139 -31 -170 -29 -48 3 -49 4 -64 48 -10 30 -22 46 -35 48
-54 8 -63 14 -78 49 -9 21 -23 64 -31 96 l-15 59 27 -7 c146 -37 194 -41 267
-19 50 14 36 14 -56 -2 -43 -7 -244 32 -264 52 -7 8 -19 14 -25 14 -6 0 -9 4
-6 9 3 4 -5 6 -18 4 -13 -3 -30 2 -39 11 -8 9 -19 16 -24 16 -4 0 -14 9 -21
20 -11 18 -9 22 15 32 41 16 95 15 213 -6 66 -12 119 -17 142 -12 l38 7 -22
29 c-14 19 -23 49 -26 87 -3 34 -10 61 -18 66 -8 4 -14 17 -14 27 0 11 -4 20
-10 20 -5 0 -10 9 -10 20 0 19 7 20 125 20 l125 0 1 -27 c1 -24 3 -21 16 17
18 57 11 163 -16 243 -19 56 -19 57 -1 57 10 0 22 -4 25 -10 3 -5 21 -10 40
-10 18 0 35 -5 37 -10 2 -6 21 -12 43 -14 55 -5 126 -24 151 -41 26 -17 44
-77 44 -151 l0 -59 100 3 100 3 0 -31 c0 -18 6 -33 15 -36 21 -9 19 -31 -5
-44 -15 -8 -20 -21 -20 -50 0 -50 -26 -117 -48 -124 -27 -8 98 3 148 14 l45 9
-45 -4 c-25 -2 -62 -7 -82 -11 l-36 -6 13 38 c8 22 14 55 15 74 0 23 7 42 20
53 24 20 26 52 5 61 -11 4 -15 21 -15 59 0 65 -9 78 -26 37 -13 -30 -13 -30
-94 -30 l-80 0 0 58 c-1 31 -7 75 -15 97 -8 22 -15 41 -15 42 0 1 12 3 28 5
19 2 28 9 30 25 3 18 -3 23 -35 29 l-38 8 45 9 c25 5 72 9 105 10 48 2 60 5
63 20 2 9 -1 17 -7 17 -6 0 -10 -6 -8 -12 1 -8 -9 -13 -25 -13 -16 0 -29 5
-30 10 -4 21 -77 38 -193 45 -99 7 -123 6 -136 -6 -14 -12 -27 -13 -87 -3 -57
9 -75 9 -87 -1 -21 -17 -19 -47 4 -55 34 -10 76 -157 69 -240 l-3 -40 -137 -3
-138 -3 0 -29 c0 -17 5 -30 10 -30 6 0 10 -9 10 -20 0 -11 7 -23 15 -26 10 -4
15 -20 15 -48 0 -23 8 -58 19 -78 10 -21 16 -40 13 -43 -11 -10 -83 -5 -188
16 -85 16 -116 18 -148 10 -22 -5 -44 -7 -48 -5 -5 3 -6 32 -2 64 5 46 3 64
-12 88 -14 25 -15 34 -5 46 12 14 23 18 104 31 70 11 94 86 62 192 -15 49 -17
51 -63 61 -26 6 -69 14 -97 17 -59 8 -98 27 -119 57 -14 20 -13 24 14 55 17
19 30 42 30 52 0 23 -27 48 -62 56 -34 9 -36 28 -6 49 20 14 123 16 910 16
l888 0 11 -26z m-743 -180 c25 -4 32 -10 30 -22 -3 -12 -12 -16 -33 -14 -17 1
-52 4 -80 6 -73 4 -115 16 -115 31 0 10 18 12 83 9 45 -3 97 -7 115 -10z
m-144 -43 c77 -22 144 -45 149 -50 20 -20 -22 -23 -90 -6 -37 9 -81 19 -98 22
-16 2 -39 8 -50 13 -11 5 -33 11 -50 14 -58 9 -116 24 -121 29 -3 3 -3 11 1
18 12 19 105 4 259 -40z"/>
<path d="M1203 1464 c25 -110 26 -127 16 -173 -5 -27 -19 -58 -30 -70 -11 -12
-17 -25 -14 -31 3 -5 -3 -7 -14 -5 -15 3 -18 0 -14 -13 11 -30 25 -42 47 -41
19 1 19 2 -3 8 -41 11 -37 31 6 32 30 0 34 2 18 9 -18 7 -18 9 10 21 17 7 63
14 103 17 65 4 76 2 97 -18 41 -38 49 -19 41 97 -4 57 -11 114 -16 128 -15 39
-65 58 -164 63 l-89 5 6 -29z"/>
<path d="M1717 1415 c-22 -46 -23 -72 -2 -55 13 11 15 8 15 -13 0 -18 12 -34
42 -56 23 -17 45 -31 48 -31 9 0 30 48 30 68 0 9 -18 30 -40 45 -22 16 -40 37
-40 47 0 14 -18 30 -34 30 -1 0 -10 -16 -19 -35z m86 -57 c33 -30 35 -35 24
-55 l-13 -23 -37 27 c-35 25 -48 58 -30 76 11 12 18 8 56 -25z"/>
<path d="M1490 1230 c0 -41 -11 -69 -29 -73 -14 -4 -14 -5 2 -6 10 -1 22 10
28 26 6 15 16 31 22 35 9 5 7 12 -5 25 -17 16 -18 16 -18 -7z"/>
<path d="M975 1221 c-6 -11 9 -23 19 -14 9 9 7 23 -3 23 -6 0 -12 -4 -16 -9z"/>
<path d="M1020 1215 c0 -9 5 -15 11 -13 6 2 11 8 11 13 0 5 -5 11 -11 13 -6 2
-11 -4 -11 -13z"/>
<path d="M1075 1221 c-6 -11 9 -23 19 -14 9 9 7 23 -3 23 -6 0 -12 -4 -16 -9z"/>
<path d="M1550 1215 c0 -8 5 -15 10 -15 6 0 10 7 10 15 0 8 -4 15 -10 15 -5 0
-10 -7 -10 -15z"/>
<path d="M1600 1214 c0 -8 5 -12 10 -9 6 3 10 10 10 16 0 5 -4 9 -10 9 -5 0
-10 -7 -10 -16z"/>
<path d="M1650 1215 c0 -8 5 -15 10 -15 6 0 10 7 10 15 0 8 -4 15 -10 15 -5 0
-10 -7 -10 -15z"/>
<path d="M1283 1183 c15 -2 37 -2 50 0 12 2 0 4 -28 4 -27 0 -38 -2 -22 -4z"/>
<path d="M1388 1173 c7 -3 16 -2 19 1 4 3 -2 6 -13 5 -11 0 -14 -3 -6 -6z"/>
<path d="M1511 1163 c7 -12 15 -20 18 -17 3 2 -3 12 -13 22 -17 16 -18 16 -5
-5z"/>
<path d="M1010 1135 c-6 -14 -10 -34 -10 -44 0 -32 21 -79 38 -87 43 -19 205
-30 342 -24 30 2 76 -1 102 -5 63 -10 104 7 127 54 40 79 37 121 -10 121 -20
0 -31 -7 -41 -27 -19 -39 -61 -46 -233 -39 -186 7 -217 13 -225 46 -5 20 -13
26 -43 28 -32 3 -38 0 -47 -23z"/>
<path d="M1308 1123 c28 -2 76 -2 105 0 28 2 5 3 -53 3 -58 0 -81 -1 -52 -3z"/>
<path d="M1858 1013 c6 -2 18 -2 25 0 6 3 1 5 -13 5 -14 0 -19 -2 -12 -5z"/>
<path d="M660 970 c-10 -6 -2 -7 25 -3 49 7 58 13 19 13 -16 0 -36 -5 -44 -10z"/>
<path d="M748 963 c7 -3 16 -2 19 1 4 3 -2 6 -13 5 -11 0 -14 -3 -6 -6z"/>
<path d="M1053 963 c15 -2 39 -2 55 0 15 2 2 4 -28 4 -30 0 -43 -2 -27 -4z"/>
<path d="M798 953 c7 -3 16 -2 19 1 4 3 -2 6 -13 5 -11 0 -14 -3 -6 -6z"/>
<path d="M997 953 c-4 -3 -24 -9 -44 -13 -35 -7 -35 -8 -8 -8 17 -1 41 5 55
13 14 8 20 14 14 15 -6 0 -14 -3 -17 -7z"/>
<path d="M1158 953 c7 -3 16 -2 19 1 4 3 -2 6 -13 5 -11 0 -14 -3 -6 -6z"/>
<path d="M728 943 c6 -2 18 -2 25 0 6 3 1 5 -13 5 -14 0 -19 -2 -12 -5z"/>
<path d="M853 943 c9 -2 23 -2 30 0 6 3 -1 5 -18 5 -16 0 -22 -2 -12 -5z"/>
<path d="M1273 943 c9 -2 23 -2 30 0 6 3 -1 5 -18 5 -16 0 -22 -2 -12 -5z"/>
<path d="M1378 943 c6 -2 18 -2 25 0 6 3 1 5 -13 5 -14 0 -19 -2 -12 -5z"/>
<path d="M1773 943 c9 -2 23 -2 30 0 6 3 -1 5 -18 5 -16 0 -22 -2 -12 -5z"/>
<path d="M1908 943 c6 -2 18 -2 25 0 6 3 1 5 -13 5 -14 0 -19 -2 -12 -5z"/>
<path d="M1428 933 c7 -3 16 -2 19 1 4 3 -2 6 -13 5 -11 0 -14 -3 -6 -6z"/>
<path d="M1553 933 c15 -2 39 -2 55 0 15 2 2 4 -28 4 -30 0 -43 -2 -27 -4z"/>
<path d="M1728 933 c7 -3 16 -2 19 1 4 3 -2 6 -13 5 -11 0 -14 -3 -6 -6z"/>
<path d="M1068 923 c6 -2 18 -2 25 0 6 3 1 5 -13 5 -14 0 -19 -2 -12 -5z"/>
<path d="M1143 923 c9 -2 23 -2 30 0 6 3 -1 5 -18 5 -16 0 -22 -2 -12 -5z"/>
<path d="M1473 923 c9 -2 23 -2 30 0 6 3 -1 5 -18 5 -16 0 -22 -2 -12 -5z"/>
<path d="M1663 923 c9 -2 25 -2 35 0 9 3 1 5 -18 5 -19 0 -27 -2 -17 -5z"/>
<path d="M858 913 c7 -3 16 -2 19 1 4 3 -2 6 -13 5 -11 0 -14 -3 -6 -6z"/>
<path d="M1198 913 c7 -3 16 -2 19 1 4 3 -2 6 -13 5 -11 0 -14 -3 -6 -6z"/>
<path d="M1348 913 c6 -2 18 -2 25 0 6 3 1 5 -13 5 -14 0 -19 -2 -12 -5z"/>
<path d="M1813 913 c15 -2 39 -2 55 0 15 2 2 4 -28 4 -30 0 -43 -2 -27 -4z"/>
<path d="M918 903 c6 -2 18 -2 25 0 6 3 1 5 -13 5 -14 0 -19 -2 -12 -5z"/>
<path d="M1278 903 c7 -3 16 -2 19 1 4 3 -2 6 -13 5 -11 0 -14 -3 -6 -6z"/>
<path d="M1408 903 c7 -3 16 -2 19 1 4 3 -2 6 -13 5 -11 0 -14 -3 -6 -6z"/>
<path d="M1748 903 c7 -3 16 -2 19 1 4 3 -2 6 -13 5 -11 0 -14 -3 -6 -6z"/>
<path d="M1448 893 c7 -3 16 -2 19 1 4 3 -2 6 -13 5 -11 0 -14 -3 -6 -6z"/>
<path d="M1528 893 c6 -2 18 -2 25 0 6 3 1 5 -13 5 -14 0 -19 -2 -12 -5z"/>
<path d="M1608 893 c6 -2 18 -2 25 0 6 3 1 5 -13 5 -14 0 -19 -2 -12 -5z"/>
<path d="M1708 893 c7 -3 16 -2 19 1 4 3 -2 6 -13 5 -11 0 -14 -3 -6 -6z"/>
<path d="M1668 883 c7 -3 16 -2 19 1 4 3 -2 6 -13 5 -11 0 -14 -3 -6 -6z"/>
<path d="M1128 853 c12 -2 30 -2 40 0 9 3 -1 5 -23 4 -22 0 -30 -2 -17 -4z"/>
<path d="M1288 853 c12 -2 30 -2 40 0 9 3 -1 5 -23 4 -22 0 -30 -2 -17 -4z"/>
<path d="M1208 843 c12 -2 30 -2 40 0 9 3 -1 5 -23 4 -22 0 -30 -2 -17 -4z"/>
<path d="M4721 3211 c-15 -28 -14 -39 10 -69 19 -25 20 -38 18 -171 -3 -140
-2 -145 20 -159 20 -14 24 -13 39 1 15 15 15 19 -1 52 -11 23 -17 63 -18 113
-3 162 -12 224 -36 239 -19 13 -23 13 -32 -6z"/>
<path d="M5450 3223 c-59 -23 -163 -151 -180 -224 -19 -78 -10 -83 158 -87
127 -3 162 -11 162 -33 0 -5 -87 -9 -194 -9 -190 0 -195 1 -210 22 -9 12 -16
29 -16 38 0 8 -7 27 -14 42 -10 19 -13 45 -9 83 6 59 -5 85 -38 85 -27 0 -36
-46 -15 -81 23 -39 7 -68 -59 -107 -44 -27 -55 -39 -61 -66 -9 -49 2 -74 36
-81 50 -11 91 3 103 36 13 34 23 37 32 10 13 -42 31 -46 229 -52 105 -3 204
-10 219 -14 17 -4 38 -3 50 3 12 6 41 13 65 15 24 3 52 13 63 23 19 17 20 17
35 -5 14 -19 25 -22 77 -22 34 0 80 0 102 0 22 0 76 1 120 3 44 3 86 0 92 -5
7 -5 30 -6 50 -3 21 3 65 7 98 9 39 1 71 9 89 20 l28 19 -7 146 c-4 81 -12
162 -19 181 -14 43 -38 60 -60 42 -23 -19 -20 -51 7 -79 20 -21 22 -35 25
-143 l4 -119 -45 0 c-41 0 -46 3 -55 29 -25 73 -102 77 -135 8 -17 -34 -22
-37 -63 -37 -31 0 -44 4 -44 14 0 23 -50 76 -72 76 -33 0 -59 -20 -74 -56 -13
-31 -18 -34 -54 -34 -21 0 -42 5 -46 11 -3 6 -15 79 -25 162 -19 147 -28 177
-55 177 -22 0 -27 -39 -9 -77 17 -36 44 -165 45 -215 0 -39 -24 -58 -75 -58
-38 0 -44 3 -55 30 -25 61 -50 70 -181 70 -125 0 -169 9 -169 36 0 23 127 151
158 159 20 5 30 1 44 -17 15 -20 19 -21 28 -8 32 49 -22 105 -80 83z m-356
-327 c-3 -9 -15 -16 -26 -16 -19 0 -19 1 3 19 27 22 32 21 23 -3z m910 -19
c12 -19 3 -32 -19 -24 -17 7 -21 51 -3 45 6 -2 16 -12 22 -21z m244 11 c16
-16 15 -38 -2 -38 -18 0 -39 27 -31 40 8 13 18 13 33 -2z"/>
<path d="M4593 3213 c-19 -7 -15 -50 7 -81 17 -23 20 -46 22 -142 l3 -115 -47
-3 c-43 -3 -48 -1 -48 18 0 29 -44 70 -74 70 -22 0 -53 -28 -81 -74 -15 -24
-104 -26 -140 -2 -27 18 -27 20 -11 32 11 7 30 11 46 8 23 -5 28 -2 34 21 4
17 2 35 -8 50 -19 29 -100 68 -123 61 -10 -3 -40 -25 -66 -49 -58 -54 -64 -89
-16 -103 48 -14 34 -29 -31 -32 -60 -3 -60 -3 -66 28 -7 34 -23 35 -40 1 -8
-16 -9 -34 -2 -58 18 -66 -33 -152 -116 -196 -54 -28 -151 -29 -223 -2 -55 20
-75 15 -57 -13 27 -42 181 -66 267 -40 55 17 154 110 172 163 13 39 15 40 71
47 37 5 65 15 80 29 l22 21 47 -27 c43 -26 53 -27 121 -22 41 3 76 1 79 -4 8
-12 72 -11 80 1 4 7 24 8 50 4 52 -7 111 10 125 37 14 26 -6 300 -25 346 -13
32 -25 37 -52 26z m-380 -229 c3 -4 -5 -15 -19 -26 -20 -17 -27 -18 -40 -7
-14 12 -14 14 2 26 19 14 47 17 57 7z m252 -100 c19 -19 7 -38 -18 -28 -18 6
-24 44 -8 44 5 0 17 -7 26 -16z"/>
<path d="M6507 3213 c-13 -12 -7 -60 8 -73 12 -10 15 -42 15 -166 l0 -154 26
-10 c14 -6 30 -8 35 -4 13 8 10 45 -6 74 -10 18 -14 63 -15 167 0 115 -3 145
-16 157 -16 17 -36 21 -47 9z"/>
<path d="M4163 3153 c-15 -6 -17 -49 -3 -58 20 -12 50 6 50 30 0 18 -21 40
-33 34 -1 0 -8 -3 -14 -6z"/>
<path d="M3404 3114 c-4 -17 -1 -37 10 -55 23 -39 7 -68 -59 -107 -44 -27 -55
-39 -61 -66 -9 -49 2 -74 36 -81 50 -11 91 3 103 36 14 36 18 36 39 -1 29 -50
90 -52 147 -4 l31 25 23 -26 c29 -35 99 -45 144 -21 38 19 69 68 77 121 13 82
-63 174 -92 111 -10 -23 -8 -30 18 -60 55 -62 31 -116 -51 -116 -50 0 -69 13
-69 47 0 34 -34 29 -83 -12 -48 -41 -88 -46 -111 -13 -9 12 -16 29 -16 38 0 8
-7 27 -14 42 -10 19 -13 45 -9 83 6 59 -5 85 -38 85 -12 0 -21 -10 -25 -26z
m10 -218 c-3 -9 -15 -16 -26 -16 -19 0 -19 1 3 19 27 22 32 21 23 -3z"/>
<path d="M3800 2769 c-10 -18 -9 -25 7 -41 19 -19 20 -19 44 1 20 16 22 23 13
38 -16 27 -51 28 -64 2z"/>
<path d="M3569 2744 c-19 -23 1 -50 37 -47 33 3 46 20 33 45 -12 22 -52 23
-70 2z"/>
<path d="M3682 2748 c-19 -19 -14 -37 12 -49 32 -15 68 4 64 34 -2 16 -11 23
-33 25 -17 2 -36 -3 -43 -10z"/>
<path d="M3327 2513 c-4 -3 -7 -28 -7 -54 l0 -48 -37 -3 c-31 -2 -39 -7 -41
-25 -3 -21 1 -23 37 -23 l41 0 0 -55 c0 -52 1 -55 25 -55 24 0 25 3 25 55 l0
55 46 0 c41 0 45 2 42 23 -2 18 -10 23 -45 25 l-43 3 0 55 c0 46 -3 54 -18 54
-10 0 -22 -3 -25 -7z"/>
<path d="M3660 2511 c0 -6 16 -37 35 -70 l36 -61 -29 -43 c-16 -23 -34 -52
-41 -64 -11 -21 -9 -23 14 -23 19 0 32 11 54 46 l28 46 29 -46 c23 -37 35 -46
57 -46 l28 0 -41 59 c-22 33 -40 65 -40 72 0 6 16 37 35 69 19 32 35 60 35 64
0 3 -45 6 -100 6 -56 0 -100 -4 -100 -9z m120 -49 c0 -5 -6 -16 -13 -26 -12
-17 -14 -16 -25 8 -11 24 -10 26 13 26 14 0 25 -4 25 -8z"/>
<path d="M3900 2385 l0 -135 25 0 c19 0 25 5 25 20 0 28 23 70 54 99 l26 24 0
-71 0 -72 30 0 31 0 -3 133 -3 132 -25 0 c-17 0 -26 -6 -28 -20 -3 -11 -21
-42 -41 -70 l-36 -50 -3 73 c-3 69 -4 72 -27 72 l-25 0 0 -135z"/>
<path d="M4195 2508 c-2 -7 -23 -64 -45 -127 -22 -63 -40 -118 -40 -123 0 -4
11 -8 24 -8 22 0 28 10 56 96 18 52 34 93 36 91 2 -2 19 -44 37 -93 29 -80 35
-89 60 -92 l27 -3 -29 78 c-74 200 -71 193 -97 193 -14 0 -27 -6 -29 -12z"/>
<path d="M4473 2487 c-51 -17 -93 -34 -93 -37 0 -3 20 -18 45 -33 25 -16 45
-33 45 -37 0 -4 -20 -21 -45 -37 -25 -15 -45 -31 -45 -34 0 -5 43 -20 158 -55
l42 -13 0 29 c0 22 -5 30 -17 30 -10 1 -31 7 -48 14 l-30 13 37 24 c21 13 38
27 38 30 0 4 -19 18 -42 32 l-41 24 51 17 c44 15 52 22 52 42 0 29 6 29 -107
-9z"/>
<path d="M4687 2514 c-4 -4 -7 -29 -7 -56 l0 -48 -35 0 c-31 0 -35 -3 -35 -25
0 -22 4 -25 34 -25 l35 0 3 -52 c3 -49 5 -53 31 -56 27 -3 27 -2 27 52 l0 56
40 0 c36 0 40 3 40 25 0 22 -4 25 -39 25 l-40 0 -3 53 c-3 44 -6 52 -23 55
-12 2 -24 0 -28 -4z"/>
<path d="M4970 2385 l0 -135 25 0 25 0 0 135 0 135 -25 0 -25 0 0 -135z"/>
<path d="M5190 2385 l0 -135 24 0 c19 0 25 7 30 34 4 19 24 53 46 78 l39 43 1
-77 c0 -77 0 -78 25 -78 l26 0 -3 133 -3 132 -24 0 c-19 0 -27 -7 -33 -30 -4
-16 -23 -48 -43 -70 l-34 -40 -1 73 c0 70 -1 72 -25 72 l-25 0 0 -135z"/>
<path d="M5410 2385 l0 -135 105 0 105 0 0 25 c0 25 -1 25 -80 25 l-80 0 0 80
0 79 78 3 c75 3 77 4 77 28 0 25 -1 25 -102 28 l-103 3 0 -136z"/>
<path d="M5647 2513 c-4 -3 -7 -35 -7 -70 l0 -63 40 0 40 0 0 -65 c0 -63 1
-65 25 -65 24 0 25 2 25 65 l0 65 40 0 40 0 0 65 c0 63 -1 65 -25 65 -22 0
-25 -4 -25 -40 l0 -40 -55 0 -55 0 0 45 c0 37 -3 45 -18 45 -10 0 -22 -3 -25
-7z"/>
<path d="M5945 2506 c-99 -45 -113 -181 -23 -236 114 -69 241 52 182 175 -28
59 -101 88 -159 61z m100 -61 c28 -27 34 -88 11 -117 -48 -63 -146 -27 -146
54 0 49 35 88 80 88 19 0 40 -9 55 -25z"/>
<path d="M6243 2487 c-51 -17 -93 -34 -93 -37 0 -3 20 -18 45 -33 25 -16 45
-32 45 -36 0 -4 -21 -23 -47 -42 l-47 -33 99 -32 c55 -17 104 -28 108 -24 20
18 0 44 -47 60 l-48 16 41 29 42 28 -47 28 -48 27 57 17 c49 14 57 20 57 41 0
30 -4 29 -117 -9z"/>
<path d="M6485 2514 c-61 -14 -109 -96 -94 -162 26 -115 184 -136 241 -31 53
96 -38 216 -147 193z m90 -69 c40 -39 32 -45 -55 -45 -87 0 -96 7 -58 47 30
32 81 31 113 -2z m19 -97 c-30 -53 -96 -66 -134 -28 -34 34 -24 40 61 40 61 0
79 -3 73 -12z"/>
<path d="M3494 2356 c-21 -33 -15 -65 18 -89 66 -49 141 39 82 98 -25 24 -81
19 -100 -9z m86 -35 c0 -16 -27 -31 -44 -25 -19 7 -21 25 -4 42 12 12 48 -1
48 -17z"/>
<path d="M5889 1850 c-27 -28 -41 -54 -50 -95 -16 -70 -2 -121 49 -177 l36
-40 -54 3 c-30 2 -61 0 -67 -4 -14 -9 -17 -55 -5 -73 13 -20 68 -24 93 -6 34
24 136 18 158 -9 17 -21 68 -28 108 -15 15 5 31 2 45 -8 34 -24 85 -20 113 9
49 48 19 175 -41 175 -25 0 -43 -16 -105 -89 -35 -41 -75 -43 -84 -3 -5 24
-15 31 -62 46 -39 13 -72 33 -106 65 -42 40 -50 54 -54 93 -5 44 -3 49 36 89
22 23 41 50 41 61 0 26 -9 23 -51 -22z m401 -330 c6 -11 8 -25 5 -30 -10 -16
-51 -12 -66 6 -11 14 -10 18 6 30 26 19 42 17 55 -6z"/>
<path d="M3700 1871 c0 -5 -18 -7 -40 -4 -39 6 -40 5 -40 -26 0 -26 4 -31 24
-31 14 0 27 4 31 9 3 5 20 7 38 4 41 -6 67 18 47 42 -13 16 -60 21 -60 6z"/>
<path d="M5266 1873 c-4 -5 -24 -8 -44 -8 -33 0 -37 -3 -37 -25 0 -27 23 -37
53 -24 9 4 31 6 48 5 36 -3 48 10 39 39 -6 20 -44 28 -59 13z"/>
<path d="M4906 1798 c-3 -13 -7 -32 -8 -42 -2 -10 -15 -28 -29 -38 -22 -17
-30 -18 -49 -8 -14 7 -39 9 -65 5 -75 -11 -239 -131 -265 -195 -10 -24 -18
-30 -44 -30 -41 0 -69 20 -71 51 -3 38 -35 34 -89 -11 -38 -31 -56 -40 -86
-40 -22 0 -42 5 -45 10 -4 6 5 10 19 10 19 0 27 7 32 24 12 51 3 61 -56 62
-38 0 -73 9 -113 27 -111 52 -177 25 -177 -71 0 -54 -12 -67 -54 -56 -23 6
-56 60 -56 92 0 10 -4 22 -10 28 -5 5 -10 43 -12 84 -3 72 -4 75 -27 75 -32 0
-49 -50 -26 -75 34 -37 17 -71 -56 -115 -48 -30 -59 -42 -65 -70 -3 -18 -4
-41 -2 -51 5 -27 48 -44 92 -37 30 5 41 13 55 41 l18 36 17 -32 c19 -37 50
-47 109 -37 23 4 58 9 77 12 19 3 39 11 45 18 14 17 102 48 115 40 5 -3 10
-13 10 -21 0 -24 61 -54 111 -54 35 0 56 7 85 28 l39 29 27 -29 27 -30 243 2
c134 2 251 -1 261 -5 10 -4 27 -1 42 9 21 14 25 25 25 62 0 47 -16 87 -58 141
l-24 33 41 47 c30 33 41 54 39 72 -4 34 -36 41 -42 9z m-126 -143 c0 -5 -181
-124 -221 -145 -13 -8 -25 -8 -31 -2 -13 13 79 94 144 126 46 23 108 35 108
21z m72 -52 c31 -34 61 -90 50 -96 -14 -9 -282 -18 -282 -10 1 7 188 132 201
133 3 0 17 -12 31 -27z m-858 -23 c37 -14 32 -25 -20 -45 -39 -15 -48 -15 -55
-4 -12 19 -11 25 7 43 18 18 33 20 68 6z m-318 -55 c-9 -14 -25 -25 -36 -25
-17 0 -16 4 12 29 38 34 48 32 24 -4z"/>
<path d="M5236 1764 c-11 -28 -6 -57 11 -76 16 -18 16 -22 2 -46 -8 -15 -38
-40 -67 -57 -40 -23 -54 -38 -62 -64 -13 -49 -3 -78 31 -90 47 -16 89 -3 111
36 l20 33 22 -32 c18 -28 29 -33 67 -36 37 -2 51 2 82 27 l37 29 29 -29 c40
-40 114 -43 164 -7 39 28 60 74 61 134 0 41 -5 58 -27 88 -33 43 -50 45 -65
11 -15 -33 -17 -27 18 -63 53 -56 33 -116 -44 -129 -46 -7 -86 17 -86 52 0 34
-30 33 -72 -4 -86 -74 -130 -61 -153 46 -3 18 -10 35 -15 38 -4 3 -6 32 -3 65
4 40 2 65 -7 75 -16 20 -46 19 -54 -1z m4 -243 c-7 -13 -21 -21 -38 -21 l-26
0 24 17 c14 9 29 24 34 32 14 23 20 -3 6 -28z"/>
<path d="M4277 1676 c-8 -20 1 -43 18 -50 19 -7 47 22 43 43 -4 22 -54 27 -61
7z"/>
<path d="M5447 1683 c-14 -13 -7 -43 12 -53 16 -8 23 -6 35 11 8 12 12 28 9
35 -5 14 -44 19 -56 7z"/>
<path d="M3990 1415 c-18 -22 -8 -50 19 -50 32 0 49 28 32 49 -17 20 -35 20
-51 1z"/>
<path d="M5691 1406 c-20 -24 -6 -48 26 -44 22 2 28 8 28 28 0 30 -35 40 -54
16z"/>
<path d="M5617 1394 c-15 -16 -7 -53 14 -59 27 -9 42 6 37 36 -3 24 -36 38
-51 23z"/>
<path d="M3695 1225 c-44 -13 -100 -29 -125 -35 l-44 -12 58 -33 c31 -18 62
-37 67 -42 7 -7 -12 -23 -56 -49 -36 -21 -62 -40 -57 -42 5 -1 66 -18 136 -36
l126 -34 0 29 c0 25 -5 29 -42 39 -87 22 -88 24 -35 56 26 16 47 31 47 35 0 3
-22 16 -50 29 -27 13 -50 26 -50 30 0 4 28 13 63 21 56 13 62 17 65 42 4 33 1
33 -103 2z"/>
<path d="M4230 1238 c-157 -45 -156 -236 2 -278 112 -31 225 47 215 149 -8 73
-61 124 -142 134 -22 3 -56 1 -75 -5z m110 -55 c38 -26 49 -45 49 -83 0 -57
-48 -100 -112 -100 -52 0 -107 52 -107 100 0 48 55 100 107 100 21 0 50 -8 63
-17z"/>
<path d="M4490 1100 l0 -150 135 0 135 0 0 30 0 30 -105 0 -105 0 0 90 0 90
105 0 105 0 0 30 0 30 -135 0 -135 0 0 -150z"/>
<path d="M4980 1100 l0 -150 30 0 30 0 0 150 0 150 -30 0 -30 0 0 -150z"/>
<path d="M5264 1237 c-2 -7 -3 -74 -2 -148 l3 -134 138 -3 137 -3 0 31 0 30
-105 0 -105 0 0 30 c0 23 4 30 20 30 13 0 20 -7 20 -20 0 -15 7 -20 25 -20 18
0 25 5 25 20 0 16 7 20 35 20 32 0 35 2 35 30 0 28 -3 30 -35 30 -28 0 -35 4
-35 20 0 15 -7 20 -25 20 -18 0 -25 -5 -25 -20 0 -13 -7 -20 -20 -20 -16 0
-20 7 -20 30 l0 30 105 0 105 0 0 30 0 30 -135 0 c-102 0 -137 -3 -141 -13z"/>
<path d="M5810 1100 l0 -150 30 0 30 0 0 150 0 150 -30 0 -30 0 0 -150z"/>
<path d="M5930 1225 c0 -22 4 -25 35 -25 l35 0 0 -100 0 -100 -35 0 c-31 0
-35 -3 -35 -25 l0 -25 110 0 110 0 0 25 c0 23 -4 25 -40 25 l-40 0 0 100 0
100 40 0 c36 0 40 3 40 25 l0 25 -110 0 -110 0 0 -25z"/>
<path d="M3830 1170 l0 -70 50 0 50 0 0 -75 0 -75 30 0 29 0 3 73 3 72 48 3
47 3 0 70 c0 67 -1 69 -24 69 -22 0 -25 -5 -28 -42 l-3 -43 -72 -3 -73 -3 0
46 c0 43 -1 45 -30 45 l-30 0 0 -70z"/>
<path d="M5618 1080 c-34 -26 -38 -78 -10 -103 27 -25 106 -23 132 3 66 66
-47 159 -122 100z m82 -35 c17 -21 5 -45 -23 -45 -34 0 -54 25 -37 45 16 19
44 19 60 0z"/>
<path d="M6216 1079 c-19 -15 -26 -30 -26 -54 0 -43 29 -65 85 -65 56 0 85 22
85 65 0 42 -38 75 -85 75 -18 0 -44 -9 -59 -21z m82 -28 c25 -15 10 -46 -23
-46 -21 0 -31 5 -33 19 -4 18 13 36 33 36 6 0 16 -4 23 -9z"/>
<path d="M3520 545 c-11 -39 -17 -45 -46 -51 -27 -5 -34 -11 -34 -30 0 -19 5
-24 26 -24 26 0 27 -1 20 -47 -24 -161 -21 -193 19 -211 31 -14 105 -16 105
-3 0 5 3 16 6 24 4 11 -5 19 -30 27 -41 13 -44 28 -22 140 l12 65 44 5 c40 4
45 8 48 33 3 26 1 27 -38 27 l-42 0 6 45 7 45 -34 0 c-32 0 -35 -3 -47 -45z"/>
<path d="M3803 500 c-67 -21 -120 -133 -110 -233 6 -68 38 -97 105 -97 26 0
60 7 76 15 27 14 31 14 38 0 9 -15 68 -22 68 -7 0 4 9 61 20 127 27 166 27
171 -12 185 -46 16 -147 21 -185 10z m137 -62 c0 -16 -31 -171 -35 -178 -9
-14 -83 -32 -105 -25 -26 8 -33 38 -25 93 8 52 28 98 47 105 13 5 118 9 118 5z"/>
<path d="M4227 491 c-40 -16 -49 -17 -54 -5 -3 8 -19 14 -37 14 l-31 0 -24
-137 c-13 -76 -25 -150 -28 -165 -5 -27 -4 -28 36 -28 22 0 41 1 41 3 0 1 9
54 20 117 11 63 20 116 20 117 0 1 13 9 30 18 39 20 99 20 107 -1 5 -14 -22
-210 -34 -242 -4 -10 4 -13 38 -10 l44 3 17 100 c22 131 22 178 0 205 -24 30
-85 35 -145 11z"/>
<path d="M4546 500 c-60 -19 -89 -63 -106 -161 -14 -78 1 -136 40 -156 30 -15
99 -17 135 -3 l27 10 -7 -42 c-12 -70 -24 -78 -130 -78 -87 0 -93 -1 -98 -22
-4 -12 -2 -25 4 -29 6 -3 51 -9 99 -13 102 -8 147 5 176 50 11 16 31 99 51
208 39 220 39 222 11 229 -48 11 -174 16 -202 7z m133 -82 c0 -32 -25 -167
-31 -174 -11 -10 -104 -14 -118 -5 -30 20 -4 169 33 193 7 4 36 8 65 8 47 0
52 -2 51 -22z"/>
<path d="M4925 500 c-47 -15 -82 -58 -99 -125 -19 -69 -20 -111 -6 -152 16
-44 49 -58 139 -56 97 2 131 14 131 46 0 23 -1 23 -85 19 -92 -5 -115 4 -115
42 0 20 5 22 68 22 83 1 135 22 157 64 23 45 16 98 -16 122 -30 23 -127 33
-174 18z m123 -83 c6 -30 -26 -55 -78 -62 -62 -8 -72 -3 -59 33 15 40 38 53
89 50 34 -2 46 -7 48 -21z"/>
<path d="M5375 501 c-16 -4 -41 -13 -54 -21 -21 -11 -26 -10 -36 4 -7 9 -25
16 -42 16 l-29 0 -23 -142 c-12 -79 -25 -153 -28 -166 -5 -20 -2 -22 35 -22
45 0 41 -7 62 120 6 36 13 75 16 88 6 29 58 52 117 52 42 0 45 2 51 32 3 17 5
32 4 33 -11 9 -48 12 -73 6z"/>
<path d="M5770 496 c-19 -7 -42 -16 -51 -20 -10 -5 -19 -1 -22 8 -4 10 -18 16
-36 16 -36 0 -31 12 -64 -188 l-24 -143 41 3 40 3 21 119 c19 116 21 120 50
132 43 19 94 17 102 -2 3 -9 -3 -69 -14 -135 l-20 -119 42 0 42 0 18 121 c18
113 20 121 46 135 35 18 93 18 108 1 8 -10 5 -44 -9 -128 -11 -63 -20 -117
-20 -121 0 -5 18 -8 40 -8 22 0 40 3 40 8 0 4 9 59 20 122 22 124 20 158 -11
186 -27 24 -106 22 -160 -4 -36 -18 -44 -19 -53 -7 -11 15 -59 35 -79 35 -7
-1 -28 -7 -47 -14z"/>
<path d="M6294 500 c-75 -23 -119 -114 -112 -227 3 -54 8 -69 27 -84 28 -23
97 -25 146 -5 31 13 36 13 43 0 6 -10 19 -14 38 -12 l29 3 22 135 c12 74 22
141 22 147 2 34 -147 64 -215 43z m126 -81 c0 -11 -5 -51 -11 -89 l-12 -69
-44 -17 c-34 -13 -49 -15 -68 -6 -21 10 -25 19 -25 54 0 54 14 105 36 129 13
14 31 19 71 19 47 0 53 -2 53 -21z"/>
<path d="M5405 220 c-9 -39 0 -50 40 -50 35 0 45 13 45 56 0 21 -4 24 -39 24
-36 0 -40 -3 -46 -30z"/>
</g>
</svg>
