<?xml version="1.0" standalone="yes"?>
<svg xmlns="http://www.w3.org/2000/svg" width="665" height="471">
<path style="fill:#ffffff; stroke:none;" d="M0 0L0 148L263 148L263 342C263 367.362 268.999 403.062 253.402 425C234.531 451.543 200.634 448.199 172 451.715C157.548 453.49 139.081 455.304 133 471L450 471L450 470L440 470C441.53 460.406 451.465 465.95 457.956 463.397C462.287 461.693 462.957 456.975 464 453C458.902 453.96 452.688 455.672 448.055 452.41C438.989 446.029 443.214 428.385 451.093 422.703C458.359 417.463 469.946 420.499 478 422C474.661 435.552 476.776 462.682 463 470L463 471L665 471L665 238L664 238C656.362 248.744 635.768 247.77 638.384 231C640.654 216.446 658.087 216.704 664 228L665 228L665 0L132 0L136 14L150 14L139 22L141 35L142 40L143 40C146.969 28.3572 161.437 30.1455 156 43C167.39 41.5526 163.32 53.0184 164 60L174 59C173.72 51.3858 180.997 51.096 183 58C187.51 58.8776 212.02 60.9021 198 68L199 77C207.109 79.3542 203.658 86.9986 196 84L191 91L191 92C194.548 98.7939 187.971 104.491 184 97L175 100C175 106.618 177.816 121.532 173.593 126.787C169.686 131.648 161.782 133.105 156 134.079C140.498 136.693 124.576 136.703 109 134.715C103.202 133.974 94.5529 133.232 90.3179 128.722C85.5791 123.676 87.0631 106.565 88 100L79 98C73.5742 103.963 68.713 98.2944 72 92L72 91C68.752 87.1519 50.5792 80.8965 64 77L65 68C57.6348 64.2711 63.0794 56.3107 69 61L70 61C75.1867 58.4602 90.0273 46.882 89 59L99 60C99.7912 52.3171 95.7681 44.0833 106 42C103.505 31.3703 115.276 27.7167 119.258 38.0038C121.855 44.715 117.416 50.1686 115 56C128.643 65.6971 121.336 79.2875 128 92L129 92L130 85L129 76C124.407 71.015 124.824 58.6472 128 53C120.876 47.4378 119.663 41.8839 124 34L120 36C122.589 24.8101 123.796 20.6049 112 15L112 14C124.941 14 127.986 13.147 131 0L0 0z"/>
<path style="fill:#ce9c23; stroke:none;" d="M131 0C127.028 12.4224 125.083 14 112 14L112 15C123.071 22.5312 121.786 23.9041 120 36L124 34C119.062 40.8651 120.379 48.9483 128 53C124.296 57.8772 123.509 72.1162 129 76L130 85L129 92L128 92C123.468 80.2313 128.586 62.3929 115 56C118.547 50.1018 122.927 41.8202 118.258 35.1088C112.24 26.4596 103.431 33.2903 106 42C95.4057 43.1907 99.2128 52.3188 99 60C89.114 59.7959 78.156 56.518 69 61C68.7826 68.9146 62.2268 71.0929 66 80L67 80C65.3139 56.132 85.3325 62 102 62L102 63C95.4763 64.726 86.9759 64.3714 81.0154 67.4568C68.6152 73.8758 76.3267 88.5652 83 96L78 94C80.3743 98.0797 83.4271 99.311 88 100C86.7181 105.896 85.7556 123.859 89.6034 128.722C93.5664 133.731 104.123 134.376 110 134.925C125.337 136.357 140.733 136.746 156 134.246C161.759 133.303 169.48 132.131 173.667 127.61C178.066 122.861 175 106.454 175 100C179.573 99.311 182.626 98.0796 185 94L180 96C186.673 88.5652 194.385 73.8758 181.985 67.4568C176.024 64.3714 167.524 64.726 161 63L161 62C176.861 62 198.947 56.1609 196 80L197 80C207.057 56.2599 177.162 59.7283 164 60C163.896 53.1909 167.546 40.2114 156 43C162.855 30.1522 145.577 27.2645 143 40L142 40L141 35C144.638 34.3583 139.897 24.7779 139 22L150 14L136 14L131 0z"/>
<path style="fill:#ffffff; stroke:none;" d="M131 11L133 14L131 11M122 17L122 18L126 18L122 17M129 17L128 22L136 22C134.442 18.3262 132.972 17.3076 129 17M138 19L141 18L138 19M127 25L126 28L129 26L127 25M136 25L138 28L136 25M127 31L127 32L136 32C132.936 29.176 130.76 29.4958 127 31M115 37L116 37C115.649 45.0336 112.746 51.4127 104 52C110.673 45.9685 102.762 41.6358 100.623 47.1474C97.2456 55.8466 110.627 55.8602 114.775 51.7716C120.393 46.235 118.024 27.5641 108.333 34.0324C103.659 37.1522 110.781 43.8737 115 37M159 51L159 52C150.315 51.104 147.658 45.0407 147 37C148.677 38.4337 150.578 40.8432 153.046 40.5347C157.52 39.9755 157.107 34.1263 152.941 33.3765C141.955 31.3993 143.495 47.984 149.109 52.5663C153.702 56.3157 167.018 54.1253 161.968 46.3187C158.872 41.5328 152.255 47.2712 159 51z"/>
<path style="fill:#dd1116; stroke:none;" d="M128 36L128 37C133.057 39.8773 128.877 44.0572 126 39C123.516 44.9903 129.281 52.3546 135.606 47.8958C143.599 42.2601 134.934 34.6713 128 36M126 37L127 38L126 37z"/>
<path style="fill:#ffffff; stroke:none;" d="M128.313 38.341C126.173 39.2278 127.548 42.5453 129.687 41.659C131.827 40.7722 130.452 37.4547 128.313 38.341z"/>
<path style="fill:#ce9c23; stroke:none;" d="M130 37L131 38L130 37M131 38L132 39L131 38M126 41L127 42L126 41M131 41L132 42L131 41z"/>
<path style="fill:#ffffff; stroke:none;" d="M113 42L109 43L110 49L113 42z"/>
<path style="fill:#ce9c23; stroke:none;" d="M127 42L128 43L127 42M130 42L131 43L130 42z"/>
<path style="fill:#ffffff; stroke:none;" d="M149 42L152 49L153 49L154 43L149 42M142 45L135 53C138.996 59.7709 137.415 77.9001 133 85L134 92L135 92C141.664 79.2874 134.357 65.6971 148 56L142 45z"/>
<path style="fill:#029fdd; stroke:none;" d="M82.4383 53.0324C77.7656 56.2054 83.5593 61.6764 87.6775 58.9676C92.3399 55.9007 86.4827 50.286 82.4383 53.0324M175.438 53.0324C170.766 56.2054 176.559 61.6764 180.677 58.9676C185.34 55.9008 179.483 50.286 175.438 53.0324z"/>
<path style="fill:#ce9c23; stroke:none;" d="M83 53L84 54L83 53M179 53L180 54L179 53z"/>
<path style="fill:#ffffff; stroke:none;" d="M82 54L83 57L84 57L85 54L82 54M178 54L179 57L180 57L181 54L178 54z"/>
<path style="fill:#ce9c23; stroke:none;" d="M84 56L85 57L84 56z"/>
<path style="fill:#029fdd; stroke:none;" d="M129 56L129 57L132 57L132 61L128 58C124.365 69.4341 144.757 57.2173 129 56z"/>
<path style="fill:#ffffff; stroke:none;" d="M101.667 57.3333L102.333 57.6667L101.667 57.3333M113 66L114 66L122 85C124.923 78.0331 122.489 53.4828 110.109 57.9375C103.818 60.2011 106.868 70.2234 113 66M128 61L132 61L132 57L128 61M140 86L141 86L149 66C154.349 68.5849 160.023 63.2573 154.566 58.8619C150.729 55.7723 146.09 58.739 143.652 62.044C138.718 68.7321 140 78.1988 140 86M160.667 57.3333L161.333 57.6667L160.667 57.3333z"/>
<path style="fill:#dd1116; stroke:none;" d="M64.0401 58.9313C58.5088 60.4734 60.14 69.2468 65.8704 67.338C70.7794 65.7027 69.7022 57.3528 64.0401 58.9313M197.144 58.9707C191.924 60.2343 194.524 69.1611 199.856 67.338C204.86 65.6273 202.066 57.7791 197.144 58.9707z"/>
<path style="fill:#ce9c23; stroke:none;" d="M62 61L62 62L65 61L64 64L65 64L66 61L65 60L62 61M198 60L197 61L198 64L199 64L198 61L201 62L198 60z"/>
<path style="fill:#ffffff; stroke:none;" d="M62 63L63 64L65 61L62 63M83 96C81.0534 93.0169 78.8984 90.1847 77.2739 87C67.066 66.9885 89.6233 67.5108 102 63C96.0435 60.5005 76.8228 58.4295 71.4599 62.7423C58.4443 73.2094 71.5279 91.5872 83 96M102 61L103 62L102 61M160 61L161 62L160 61M161 62L161 63C173.377 67.5108 195.934 66.9885 185.726 87C184.102 90.1847 181.947 93.0168 180 96C191.049 91.7501 205.976 71.3589 190.74 62.179C183.573 57.8606 169.077 62 161 62M198 61L200 64L201 63L200 61L198 61M103 64C94.8143 68.5853 73.3013 65.914 76.8287 81C77.4746 83.7623 78.9278 86.3859 80 89L81 89C81.1003 80.5102 84.8739 78.582 92 83C94.1561 75.8228 100.011 73.8482 104 81L105 81C106.395 68.5197 113.691 76.5032 119 81C117.85 69.7746 109.493 70.9495 103 64M159 64C154.359 72.4548 145.757 69.2781 144 81C149.309 76.5032 156.605 68.5197 158 81L159 81C162.989 73.8482 168.844 75.8228 171 83C178.126 78.582 181.9 80.5101 182 89L183 89C184.198 86.1169 186.099 83.1274 186.516 80C188.345 66.3013 167.548 67.292 159 64z"/>
<path style="fill:#dd1116; stroke:none;" d="M129 69L130 70L129 69M131 69L132 72L129 73L129 74L134 74L131 69z"/>
<path style="fill:#ffffff; stroke:none;" d="M129 70L129 72L131 72L131 70L129 70z"/>
<path style="fill:#ce9c23; stroke:none;" d="M131.333 70.6667L131.667 71.3333L131.333 70.6667z"/>
<path style="fill:#029fdd; stroke:none;" d="M107.314 75.7863C103.165 77.6174 106.769 84.6674 110.687 82.8241C115.011 80.7894 111.958 73.7367 107.314 75.7863M152.314 76.0717C148.416 78.4257 151.388 85.1891 155.687 82.7624C159.852 80.4109 156.794 73.3662 152.314 76.0717z"/>
<path style="fill:#ce9c23; stroke:none;" d="M107 76L106 78L107 76M155 76L156 77L155 76z"/>
<path style="fill:#029fdd; stroke:none;" d="M60.3148 78.0471C55.4474 81.0958 61.0042 88.2455 65.3927 84.8163C69.1036 81.9168 64.4094 75.4824 60.3148 78.0471z"/>
<path style="fill:#ffffff; stroke:none;" d="M106 78L106 79L110 79L106 78M154 77L155 80L156 80L157 77L154 77z"/>
<path style="fill:#029fdd; stroke:none;" d="M198.434 78.0471C194.049 80.8543 198.154 87.762 202.682 84.9529C207.07 82.2308 202.841 75.2255 198.434 78.0471z"/>
<path style="fill:#dd1116; stroke:none;" d="M93.7469 79.0285C89.8904 82.2082 95.5322 88.5888 99.4823 85.9529C104.504 82.6021 98.1627 75.3878 93.7469 79.0285z"/>
<path style="fill:#029fdd; stroke:none;" d="M131 78L129 82C132.854 82.6032 134.409 80.5152 131 78z"/>
<path style="fill:#dd1116; stroke:none;" d="M163.603 79.0285C159.534 82.2407 164.098 89.2312 168.679 85.392C173.107 81.681 167.948 75.5975 163.603 79.0285z"/>
<path style="fill:#ffffff; stroke:none;" d="M60 79L60 82L63 81L63 80L60 79z"/>
<path style="fill:#ce9c23; stroke:none;" d="M62 79L63 80L62 79z"/>
<path style="fill:#ffffff; stroke:none;" d="M95 79L94 80L97 82L95 79z"/>
<path style="fill:#ce9c23; stroke:none;" d="M96 79L97 80L96 79z"/>
<path style="fill:#ffffff; stroke:none;" d="M130 79L130 81L132 81L130 79z"/>
<path style="fill:#ce9c23; stroke:none;" d="M131 79L132 80L131 79M154 79L155 80L154 79M166 79L165 81L166 79z"/>
<path style="fill:#ffffff; stroke:none;" d="M167 79L166 82L169 82L167 79z"/>
<path style="fill:#ce9c23; stroke:none;" d="M200 79L201 80L200 79z"/>
<path style="fill:#ffffff; stroke:none;" d="M200 80L200 81L203 82L203 79L200 80z"/>
<path style="fill:#ce9c23; stroke:none;" d="M59 80L60 81L59 80M97.3333 80.6667L97.6667 81.3333L97.3333 80.6667M203 80L204 81L203 80M67 81C67.4751 87.5416 70.8824 91.0663 77 93L77 92L67 81M94 81L95 82L94 81M195 81L186 92L186 93C191.324 91.3266 197.394 87.3427 195 81z"/>
<path style="fill:#029fdd; stroke:none;" d="M83.3148 83.0463C78.9259 85.7665 83.329 91.918 87.483 89.6358C91.7746 87.278 87.6805 80.3405 83.3148 83.0463z"/>
<path style="fill:#ce9c23; stroke:none;" d="M95.6667 82.3333L96.3333 82.6667L95.6667 82.3333z"/>
<path style="fill:#ffffff; stroke:none;" d="M115 82C116.769 87.0612 119.055 90.6731 124 93L115 82M147 82L139 93C143.682 91.3321 147.413 87.2065 147 82z"/>
<path style="fill:#ce9c23; stroke:none;" d="M167 82L168 83L167 82z"/>
<path style="fill:#029fdd; stroke:none;" d="M175.448 83.0471C171.274 85.7873 175.254 91.9142 179.686 89.3835C184.143 86.8381 179.55 80.3532 175.448 83.0471z"/>
<path style="fill:#ffffff; stroke:none;" d="M83 83L83 87L84 87L83 83z"/>
<path style="fill:#ce9c23; stroke:none;" d="M84 83L85 84L84 83z"/>
<path style="fill:#ffffff; stroke:none;" d="M104 84C105.973 90.6394 109.888 94.5212 117 93L112 83L104 84M151 83L146 93C153.01 94.9025 157.087 90.4379 159 84L151 83z"/>
<path style="fill:#ce9c23; stroke:none;" d="M178 83L178 87L179 87L178 83z"/>
<path style="fill:#ffffff; stroke:none;" d="M179 83L179 87L180 87L179 83z"/>
<path style="fill:#ce9c23; stroke:none;" d="M85.3333 84.6667L85.6667 85.3333L85.3333 84.6667M84 86L85 87L84 86z"/>
<path style="fill:#ffffff; stroke:none;" d="M93 87C95.0743 94.369 100.141 95.4792 107 95L107 94L101 86L93 87z"/>
<path style="fill:#dd1116; stroke:none;" d="M132 86L130 88L130 89C132.251 88.5268 133.118 88.1397 132 86z"/>
<path style="fill:#ffffff; stroke:none;" d="M162 86L156 94L156 95C163.431 95.8719 167.639 93.9123 171 87L162 86M130 87L131 88L130 87M82 91L86 96L87 96L95 98L90 90L82 91M173 90L169 98L176 96L177 96L181 91L173 90z"/>
<path style="fill:#dd1116; stroke:none;" d="M71.6026 93.0432C67.1611 96.3758 72.8419 104.35 77.5231 100.242C81.5716 96.6901 75.72 89.9538 71.6026 93.0432M187.224 92.7616C182.361 94.8241 184.415 102.93 189.856 101.149C194.977 99.4729 193.012 90.3068 187.224 92.7616z"/>
<path style="fill:#ce9c23; stroke:none;" d="M73 93L75 95L73 93M189 93L188 95L189 93z"/>
<path style="fill:#ffffff; stroke:none;" d="M72 94L74 97L75 96L74 94L72 94M188 95L188 96L191 97L191 94L188 95z"/>
<path style="fill:#ce9c23; stroke:none;" d="M71 95L72 96L71 95z"/>
<path style="fill:#ffffff; stroke:none;" d="M122 95L122 96L141 96L122 95z"/>
<path style="fill:#ce9c23; stroke:none;" d="M191 95L192 96L191 95M72 96L73 97L72 96M74 96L75 97L74 96z"/>
<path style="fill:#ffffff; stroke:none;" d="M89.3333 96.6667L89.6667 97.3333L89.3333 96.6667M90 102L91 105L89 107L129 100.039L172 107L172 103C163.154 98.3575 151.954 96.0824 142 96L142 97L158 99L158 100L132 97.0787L97 102L97 101L121 97C112.325 93.3936 98.6987 100.006 90 102M173.333 96.6667L173.667 97.3333L173.333 96.6667z"/>
<path style="fill:#ce9c23; stroke:none;" d="M188 96L189 97L188 96M158 100L158 101L171 104L158 100M91 103L91 104L97 103L91 103z"/>
<path style="fill:#029fdd; stroke:none;" d="M125 102L127 105L124 104L123 104C125.584 110.415 131.415 104.584 125 102z"/>
<path style="fill:#dd1116; stroke:none;" d="M136 102L138 105L134 105C137.109 109.811 141.306 104.989 136 102z"/>
<path style="fill:#ffffff; stroke:none;" d="M125 103L124 104L124 105L125 106L126 106L127 105L127 104L125 103z"/>
<path style="fill:#dd1116; stroke:none;" d="M134 103L135 104L134 103z"/>
<path style="fill:#029fdd; stroke:none;" d="M146 103L147 107L144 106L144 107L149 108L146 103z"/>
<path style="fill:#ffffff; stroke:none;" d="M115 104L114 106L116 106L115 104z"/>
<path style="fill:#dd1116; stroke:none;" d="M116 104L114 106L119 107L119 105L116 104z"/>
<path style="fill:#ffffff; stroke:none;" d="M135.667 104.333L136.333 104.667L135.667 104.333z"/>
<path style="fill:#ce9c23; stroke:none;" d="M137 104L138 105L137 104z"/>
<path style="fill:#dd1116; stroke:none;" d="M155 104L156 107L153 107L153 108C156.854 108.603 158.409 106.515 155 104z"/>
<path style="fill:#029fdd; stroke:none;" d="M106 105L106 106L108 107L105 107L105 108L110 108L106 105z"/>
<path style="fill:#ce9c23; stroke:none;" d="M116 105L117 106L116 105M124 105L125 106L124 105M135.667 105.333L136.333 105.667L135.667 105.333z"/>
<path style="fill:#ffffff; stroke:none;" d="M145.667 105.333L146.333 105.667L145.667 105.333M154 105L154 107L156 107L154 105z"/>
<path style="fill:#ce9c23; stroke:none;" d="M155 105L156 106L155 105z"/>
<path style="fill:#ffffff; stroke:none;" d="M106 106L106 108L108 106L106 106z"/>
<path style="fill:#ce9c23; stroke:none;" d="M115 106L116 107L115 106M145.667 106.333L146.333 106.667L145.667 106.333z"/>
<path style="fill:#029fdd; stroke:none;" d="M163 106L164 109L161 108L163 111L164 111L163 106z"/>
<path style="fill:#dd1116; stroke:none;" d="M99 107L98 111C100.08 109.695 100.941 108.819 99 107z"/>
<path style="fill:#ce9c23; stroke:none;" d="M154 107L155 108L154 107z"/>
<path style="fill:#ffffff; stroke:none;" d="M162 107L162 109L164 107L162 107M98 108L99 109L98 108z"/>
<path style="fill:#ce9c23; stroke:none;" d="M99 108L100 109L99 108M163 108L164 109L163 108z"/>
<path style="fill:#029fdd; stroke:none;" d="M92 109L91 112L91 113L95 112L95 110L92 109z"/>
<path style="fill:#dd1116; stroke:none;" d="M170 109L168 111L168 112C170.48 111.809 173.177 110.784 170 109z"/>
<path style="fill:#ffffff; stroke:none;" d="M91 110L93 112L93 110L91 110M89 119L132 112.008L172 119C170.356 113.374 159.162 112.461 154 111.426C138.265 108.269 120.637 109.267 105 112.398C99.7161 113.456 91.7163 113.86 89 119M169 110L170 111L169 110z"/>
<path style="fill:#ce9c23; stroke:none;" d="M170 110L171 111L170 110z"/>
<path style="fill:#ffffff; stroke:none;" d="M108 119L108 120C124.607 121.311 141.727 124.509 158 119C145.185 113.472 121.321 115.829 108 119M91 123C94.2305 128.285 103.281 128.756 109 129.75C124.303 132.409 139.715 132.838 155 129.8C160.434 128.72 167.926 128.043 171 123L140 128.961L91 123z"/>
<path style="fill:#19172d; stroke:none;" d="M344.165 147.599C339.839 147.928 330.189 154.27 339.019 154.632C341.195 154.721 346.691 154.4 348.381 152.97C351.87 150.017 346.819 147.397 344.165 147.599M511.995 147.599C507.605 147.908 498.336 154.276 507.019 154.632C509.195 154.721 514.691 154.4 516.381 152.97C519.991 149.915 514.616 147.414 511.995 147.599M0 148L0 348C0 374.139 -5.61293 409.786 13.3009 430.961C31.8701 451.749 65.8592 449.143 91 451.834C106.465 453.49 121.586 456.444 130 471L133 471C141.414 456.444 156.535 453.49 172 451.834C196.414 449.22 230.478 452.087 248.572 431.96C268.429 409.871 263 375.442 263 348L263 148L0 148M472 148C470.535 154.244 473.525 158.022 474.556 164C475.234 167.928 475.043 172.029 474.996 176C474.955 179.5 473.232 184.483 474.618 187.772C475.69 190.316 480.008 191.86 481.353 188.678C482.737 185.407 479.7 181.23 479.213 178C477.935 169.529 483.329 150.363 472 148M558 182C550.953 184.974 524.017 187.834 519.089 180.772C513.829 173.231 518.661 158.607 509 156C507.725 160.594 510.37 167.257 508.2 170.895C504.654 176.839 496.587 176.449 497.074 184.996C497.575 193.774 510.38 192.588 512 185C522.206 194.44 536.756 190.536 550 191.019C554.427 191.18 558.542 193.391 563 192.736C568.094 191.988 575.082 191.49 578 187L579 187C582.223 191.959 586.532 190.423 591.714 191.046C603.697 192.486 618.605 192.677 630.576 191.033C635.971 190.292 643.43 192.395 646.103 185.895C648.921 179.042 645.996 163.291 644.671 156.001C644.15 153.136 642.193 148.136 638.302 149.662C633.588 151.511 637.634 157.563 638.894 160.17C643.082 168.832 643.856 183.86 632 184C631.806 182.26 631.731 180.647 630.821 179.084C623.754 166.955 617.319 184.2 611.039 183.534C605.23 182.918 605.36 174.193 598.015 175.248C592.969 175.973 588.979 187.686 583.589 181.677C579.076 176.647 579.823 163.477 579.049 157C578.756 154.543 578.484 149.636 574.979 149.636C571.458 149.636 571.891 153.777 572.623 156.001C574.702 162.309 580.195 174.344 576.052 180.772C574.623 182.99 571.656 184.219 569.105 183.353C565.011 181.962 564.042 176.612 559.957 174.858C554.435 172.487 534.832 177.638 532.331 170.686C530.233 164.854 544.975 151.539 550 158C555.329 156.231 554.919 148.934 548.981 148.164C539.859 146.98 530.595 159.578 527.613 167C526.394 170.031 524.818 175.51 527.603 178.142C533.803 184.001 549.913 178.588 558 182M651.43 149.176C647.337 151.187 650.801 156.378 651.88 159C654.837 166.19 652.859 176.331 653.005 183.996C653.057 186.762 653.601 191.721 657.776 190.288C660.55 189.335 660.154 186.232 659.517 183.999C656.68 174.065 657.833 165.166 656.941 155.001C656.72 152.476 655.013 147.415 651.43 149.176M422 180L430 180C430.534 177.748 431.223 175.367 430.667 173.039C425.961 153.308 394.252 176.25 412 182C405.755 185.005 400.874 184.092 399 177C391.308 181.141 396.721 188.581 393.542 195C385.355 211.534 369.988 207.991 356 204C354.088 212.476 367.643 214.295 374 213.815C386.879 212.843 399.008 204.24 401 191C406.768 191 412.728 188.183 418 188.373C431.38 188.857 450.833 197 463.941 189.821C471.395 185.739 467.651 166.129 466.711 159C466.297 155.865 465.624 150.688 461.91 149.752C458.684 148.938 456.951 152.278 457.647 155.005C459.236 161.235 467.138 175.94 461.218 182.396C456.046 188.037 451.047 175.556 446 175.207C440.62 174.834 439.831 179.581 436.505 182.397C432.02 186.194 425.763 183.004 422 180z"/>
<path style="fill:#dd1116; stroke:none;" d="M3 150L3 349C3 374.628 -3.0028 409.491 16.1736 429.96C46.124 461.928 104.195 431.843 131 467L132 467C158.762 431.898 216.578 461.347 246.907 429.96C266.086 410.111 260 375.131 260 350L260 150L3 150z"/>
<path style="fill:#19172d; stroke:none;" d="M14 154L13 159L15 155L18 155L20 159L19 154L14 154M129 154L129 155L133 155L129 154M245 154L244 159L246 155L249 155L251 159L250 154L245 154z"/>
<path style="fill:#ce9c23; stroke:none;" d="M15 155L15 159L12 158L12 172L7 172L7 175L26 175L26 172L21 172L21 158L18 159L18 155L15 155M129 155L128 172L123 172L123 175L139 175L139 172L134 172L133 155L129 155M246 155L246 159L243 158L243 172L238 172L238 175L256 174L256 173L252 172L252 158L249 159L249 155L246 155z"/>
<path style="fill:#19172d; stroke:none;" d="M421 155C407.486 156.031 422.415 167.683 421 155z"/>
<path style="fill:#ce9c23; stroke:none;" d="M5 156L5 158L12 158L12 156L5 156M21 156L21 158L28 158L28 156L21 156M119 156L119 158L126 158L126 156L119 156M136 156L136 158L143 158L143 156L136 156M236 156L236 158L243 158L243 156L236 156M252 156L252 158L259 158L259 156L252 156z"/>
<path style="fill:#19172d; stroke:none;" d="M341 156C339.725 160.594 342.37 167.257 340.2 170.895C336.876 176.466 329.216 176.246 329.063 184.003C328.861 194.31 341.726 192.037 345 185C351.045 193.991 358.047 190.405 366 186C374.217 201.266 396.444 182.551 388.08 168.059C385.945 164.359 379.056 162.684 379.661 168.93C380.03 172.735 384.798 174.743 383.878 178.946C381.655 189.1 371.282 181.055 369 176C364.363 177.377 359.695 183.141 355.044 183.133C343.628 183.112 351.338 158.789 341 156M127 158L127 172L128 172L129 158L127 158M133 158L134 172L135 172L133 158M122 172L122 175L123 175L122 172M139 172L139 175L140 175L139 172M255 172L256 173L255 172z"/>
<path style="fill:#ffffff; stroke:none;" d="M415 175L421 174C418.338 172.222 417.22 172.785 415 175z"/>
<path style="fill:#19172d; stroke:none;" d="M255 174L256 175L255 174M30 179L30 344C30 364.364 24.8768 393.081 41.0934 408.826C60.7204 427.883 91.1663 419.298 115 426.44C122.752 428.763 126.984 434.153 133 439C154.921 410.249 200.494 433.722 224.895 406.996C239.951 390.506 235 361.481 235 341L235 179L30 179z"/>
<path style="fill:#ffffff; stroke:none;" d="M341 179L338 183L341 179M509 179L506 183L509 179z"/>
<path style="fill:#ce9c23; stroke:none;" d="M32 182L32 343C32 362.936 27.0685 391.05 42.1852 406.907C65.1835 431.03 111.52 407.935 131 435L133 435C154.339 408.276 199.439 431.314 222.895 405.985C237.54 390.171 233 361.78 233 342L233 182L32 182z"/>
<path style="fill:#ffffff; stroke:none;" d="M443 182L447 185L443 182M597 182L601 185L600 182L597 182M622 182L626 185L625 182L622 182z"/>
<path style="fill:#19172d; stroke:none;" d="M110 191L109 192C111.984 206.46 116.635 220.805 120.709 235C121.539 237.89 122.823 248.769 127.726 247.248C131.243 246.157 130 238.717 130 236L130 199L110 191M121 249L106 196L105 196L120 248C110.418 248.822 100.91 224.469 96.5756 217C94.9976 214.281 91.6698 210.551 91.5934 207.285C91.4906 202.893 96.5542 198.068 97 193L105 195C98.658 187.16 90.431 201.05 89.9815 207C89.678 211.016 93.8406 215.734 95.8002 219C100.838 227.397 109.733 251.572 121 249z"/>
<path style="fill:#029fdd; stroke:none;" d="M110 192C113.159 205.78 117.455 219.353 121.151 233C122.613 238.399 123.042 245.197 129 247L129 200L110 192z"/>
<path style="fill:#19172d; stroke:none;" d="M380.746 193.032C377.21 195.893 381.949 201.682 385.393 198.378C388.696 195.208 384.24 190.206 380.746 193.032z"/>
<path style="fill:#029fdd; stroke:none;" d="M97 193C96.2403 198.046 91.5046 202.325 91.2485 207C91.0446 210.722 94.8031 214.946 96.5756 218C100.741 225.177 110.581 250.124 120 248C116.831 234.177 112.191 220.551 108.025 207C105.827 199.854 105.555 193.779 97 193z"/>
<path style="fill:#19172d; stroke:none;" d="M357.336 196.028C352.975 199.054 359.182 203.277 362.667 200.968C367.36 197.859 361.086 193.426 357.336 196.028M376 195C359.237 195.152 375.558 208.295 376 195M133 197L133 248C141.21 247.345 142.984 232.906 144 226L143 226C141.508 232.508 140.116 243.464 134 247L134 198C148.313 202.251 146.728 210.298 145 222C152.413 210.219 147.49 198.492 133 197z"/>
<path style="fill:#029fdd; stroke:none;" d="M134 198L134 247C139.761 244.995 140.397 236.242 142.025 231C146.074 217.971 153.69 201.566 134 198z"/>
<path style="fill:#19172d; stroke:none;" d="M153 210L154 210C157.106 207.659 166.444 207.215 166.403 213.058C166.38 216.364 163.162 220.232 161.579 223C157.332 230.423 152.234 246.541 143 248L153 211L152 211L142 249L148 250C153.943 239.923 166.719 224.494 168.607 213.044C169.735 206.205 155.864 205.583 153 210z"/>
<path style="fill:#029fdd; stroke:none;" d="M143 248C152.772 247.246 158.359 229.67 162.719 222C164.219 219.361 167.548 215.38 167.003 212.144C166.309 208.021 157.582 206.819 154.728 209.028C152.194 210.988 151.68 216.104 150.86 219C149.723 223.011 148.583 227.02 147.341 231C145.605 236.564 143.779 242.217 143 248z"/>
<path style="fill:#19172d; stroke:none;" d="M86 210C87.352 217.282 83.7597 224.524 84.8519 231C86.3013 239.594 102.547 254.806 111 252C108.099 239.648 95.1204 218.837 86 210M173 212L150 251C162.947 256.229 174.47 236.571 182.999 228C185.929 225.056 194.176 218.701 189 215L189 216C189.407 220.258 184.112 223.906 181.424 227C175.003 234.394 161.475 254.104 151 250L173 214L186 216L186 215L173 212z"/>
<path style="fill:#029fdd; stroke:none;" d="M173 214L151 250C157.397 253.376 160.389 249.6 165 245C173.486 236.535 185.895 226.947 191 216L173 214M88 215C87.9995 219.961 85.2823 226.494 85.9931 231C87.1148 238.112 102.909 253.878 110 251C104.562 239.366 96.7931 224.361 88 215z"/>
<path style="fill:#19172d; stroke:none;" d="M332 219L332 230L324 230L324 236L332 236L332 246L338 246L338 236L346 236L346 230L338 230L338 219L332 219M365 219L370.883 232L364 246C370.544 245.922 372.467 243.218 376 238C378.517 243.271 381.042 245.806 387 246L380.542 233L387 219L365 219M389 219L389 246L395 246L403 233L403 246L409 246L409 219L403 219L395 232L395 219L389 219M419 219L410 246C418.716 245.714 420.714 235.471 422 228L423 228C424.684 235.28 426.24 245.709 435 246L426 219L419 219M437 225L437 227L446 232L446 234L437 239L437 241L459 247L459 241L450 239L457 232L449 228L449 227L458 225L458 219L437 225M468 219L468 230L460 230L460 236L468 236L468 246L474 246L474 236L482 236L482 230L474 230L474 219L468 219M497 219L497 246L503 246L503 219L497 219M519 219L519 246C525.494 245.482 527.744 237.464 532 233L532 246L538 246L538 219L532 219L524 232L524 219L519 219M540 219L540 246L562 246L562 240L546 240L546 225L562 225L562 219L540 219M564 219L564 233L572 233L572 247L577 247L577 233L585 233L585 219L580 219L580 228L570 228L570 219L564 219M595 219.653C578.192 224.904 586.541 250.894 603.996 245.347C619.446 240.438 611.228 214.582 595 219.653M614 225L624 232L624 234L614 241L636 247L636 241L627 239L634 234L634 232L626 228L626 227C631.49 226.189 635.53 225.045 636 219L614 225M648 219.573C630.698 224.509 638.559 250.344 656 245.566C672.316 241.097 664.531 214.856 648 219.573M194 221C185.221 229.779 176.743 238.949 167.831 247.576C165.303 250.022 159.065 254.85 164.167 258.153C168.196 260.76 173.681 255.991 177 254C188.161 247.304 199.211 239.511 211 234L211 231L194 221M144.333 223.667L144.667 224.333L144.333 223.667z"/>
<path style="fill:#029fdd; stroke:none;" d="M210 232C206.118 230.271 196.772 223.385 193 224.345C184.777 226.438 174.866 242.014 169.005 248C167.215 249.828 162.549 253.6 164.752 256.574C167.432 260.193 174.471 254.17 177 252.72C187.746 246.559 201.036 240.578 210 232z"/>
<path style="fill:#ffffff; stroke:none;" d="M374 224L376 228L378 224L374 224M597.015 224.786C586.937 228.112 591.806 244.241 601.956 240.254C610.716 236.813 605.959 221.835 597.015 224.786M644 230L659 230C655.349 222.599 647.915 223.138 644 230z"/>
<path style="fill:#19172d; stroke:none;" d="M353.044 232.697C344.496 234.986 348.183 247.905 356.981 245.562C365.572 243.273 361.271 230.493 353.044 232.697M102 256C99.3885 252.293 96.2055 249.207 93 246C90.6816 243.681 88.4223 241.27 86 239.059C81.0375 234.528 69.6489 232.644 72.3187 242.957C74.4957 251.366 95.4231 261.367 102 256z"/>
<path style="fill:#ffffff; stroke:none;" d="M644 235C647.871 242.053 655.368 242.535 659 235L644 235z"/>
<path style="fill:#029fdd; stroke:none;" d="M74.6181 237.028C66.7844 243.461 87.4318 253.399 91 255.38C92.8477 256.406 96.3926 258.578 98.2485 256.353C100.282 253.914 96.466 250.564 94.9799 249C91.352 245.182 81.1634 231.653 74.6181 237.028z"/>
<path style="fill:#19172d; stroke:none;" d="M169 262C174.495 272.25 187.285 264.847 196 262.424C201.713 260.836 217.437 259.671 220.782 254.487C223.779 249.84 218.317 240.076 216 236L169 262z"/>
<path style="fill:#ffffff; stroke:none;" d="M352 238L352 240L357 241C356 237.964 355.137 237.506 352 238z"/>
<path style="fill:#029fdd; stroke:none;" d="M216 238C209.439 239.184 203.731 243.461 198 246.719L178.001 258.14C175.981 259.278 171.44 260.933 171.921 263.956C172.842 269.743 185.901 264.305 189 263.421C195.114 261.679 216.541 259.365 219.396 253.57C221.73 248.832 217.756 242.282 216 238z"/>
<path style="fill:#19172d; stroke:none;" d="M74 251L64 261L70 263L70 262L67 262L74 253L93 262C88.6434 270.845 78.42 264.092 71 263L71 264C79.9067 266.042 90.0758 272.918 95 262L74 251z"/>
<path style="fill:#029fdd; stroke:none;" d="M74 253L67 262C74.3123 263.513 90.0208 272.24 93 262L74 253z"/>
<path style="fill:#19172d; stroke:none;" d="M219 259L219 260L223 259L223 263L224 263L223 258L219 259z"/>
<path style="fill:#029fdd; stroke:none;" d="M222 259L176 273L177 279L224 279L222 259z"/>
<path style="fill:#19172d; stroke:none;" d="M215 260L215 261L218 261L215 260M212 261L212 262L215 262L212 261M208 262L208 263L211 263L208 262M205 263L205 264L208 264L205 263M201 264L201 265L205 265L201 264M224 264L224 279L177 279L177 275L176 275C176.575 282.37 182.258 280.028 188 280.001C200.333 279.941 212.667 280 225 280L224 264M63 265L56 278L56 279C67.4181 279.001 85.5494 285.488 90 272L63 265M198 265L198 266L201 266L198 265M191 267L191 268L198 267L191 267z"/>
<path style="fill:#029fdd; stroke:none;" d="M59 278C67.0689 278 85.7992 283.554 88 273C83.0883 271.429 69.1748 265.022 64.5602 268.067C61.9396 269.796 60.4361 275.256 59 278z"/>
<path style="fill:#19172d; stroke:none;" d="M14 268L13 273L15 269L18 269L20 273L19 268L14 268M188 268L188 269L191 269L188 268M245 268L244 273L246 269L249 269L251 273L250 268L245 268z"/>
<path style="fill:#ce9c23; stroke:none;" d="M15 269L15 273L12 272L12 285L7 289L26 289L21 285L21 272L18 273L18 269L15 269z"/>
<path style="fill:#19172d; stroke:none;" d="M184 269L184 270L188 270L184 269z"/>
<path style="fill:#ce9c23; stroke:none;" d="M246 269L246 273L243 272L243 285L238 289C243.513 289 253.903 291.317 256 285L252 285L252 272L249 273L249 269L246 269M5 270L5 272L12 272L12 270L5 270M21 270L21 272L28 272L28 270L21 270z"/>
<path style="fill:#19172d; stroke:none;" d="M181 270L181 271L184 271L181 270z"/>
<path style="fill:#ce9c23; stroke:none;" d="M236 270L236 272L243 272L243 270L236 270M252 270L252 272L259 272L259 270L252 270z"/>
<path style="fill:#19172d; stroke:none;" d="M175 275L176 275L181 272C177.828 270.896 176.091 271.891 175 275M370.995 282.679C368.623 282.911 364.387 282.797 362.623 284.617C359.883 287.441 362.989 290.457 366.019 290.486C368.584 290.511 373.493 290.196 375.377 288.255C378.673 284.861 374.04 282.382 370.995 282.679M526.995 282.584C524.575 282.815 520.421 282.675 518.647 284.606C516.122 287.354 519.023 290.474 522.005 290.516C524.373 290.55 529.511 290.323 531.4 288.819C535.67 285.416 530.347 282.264 526.995 282.584M591 317C588.012 316.445 584.164 315.297 581.228 316.604C576.729 318.608 578.064 324.614 582.059 326.257C587.431 328.466 592.51 323.691 597.996 324.063C602.107 324.342 604.281 327.538 608.039 328.566C612.578 329.808 621.209 330.027 625.999 329.965C636.026 329.837 638.284 312.669 628.895 309.851C621.69 307.689 616.628 320.425 609 321C608.246 311.538 591.953 311.742 588.009 301.999C584.529 293.401 594.118 289.759 595 282C577.72 286.111 581.861 307.416 591 317M12 285L13 286L12 285M20 285L21 286L20 285M243 285L244 286L243 285M251 285L252 286L251 285M43 297C43.5493 284.224 72.0455 289 81 289L188 289L214 289C217.359 289.002 221.872 288.364 224.254 291.318C226.731 294.389 225.398 298.749 221.891 300.258C218.044 301.913 213.722 300.171 210.039 302.603C194.868 312.624 195.361 335.94 193 352C202.345 357.421 199.974 367.209 201 377L202 377C201.918 367.183 203.961 355.783 194 351C198.322 337.393 195.574 322.71 204.503 311C206.768 308.029 209.421 303.999 213.039 302.603C218.606 300.456 227.5 303.431 226.767 294.004C226.273 287.653 221 288.002 216 288L185 288L73 288C65.0592 288 54.6148 286.225 47.0046 288.653C43.2221 289.859 38.8486 293.924 43 297M255 288L256 289L255 288z"/>
<path style="fill:#029fdd; stroke:none;" d="M59 370L99 371C97.3311 365.149 96.0503 358.72 93.946 353.039C93.1603 350.919 90.3575 347.631 91.3264 345.279C93.4437 340.138 113.594 342.951 118 344C118 335.055 119.904 317.229 109 314C111.975 305.753 118.471 310.432 125 310.072C140.038 309.242 152.667 308.35 168 312C162.54 315.693 150.524 316.192 144 315L144 316L154 322L147 323C149.893 330.102 151.414 336.356 150 344C157.989 344 165.863 346.047 170 338L174 351L169 357L166 372L201 372C199.117 363.427 203.084 355.921 193 352C196.85 335.166 194.435 313.334 211.015 302.603C214.705 300.215 219.004 302.018 222.772 300.258C225.968 298.765 226.691 294.15 224.82 291.318C222.671 288.064 217.328 289 214 289L185 289L79 289C71.2853 289 48.5615 285.19 43.662 292.21C40.4881 296.757 48.5523 298.066 49.0795 302.044C49.6783 306.563 43.6565 309.005 46.9128 313.786C54.8406 325.426 72.5353 313.639 75.1551 332C77.2911 346.97 63.1871 341.156 57.8002 348.434C55.6155 351.385 59 365.458 59 370z"/>
<path style="fill:#19172d; stroke:none;" d="M448 321L434.853 313.712L420 321C421.021 318.564 422.677 315.093 420.806 312.603C418.732 309.843 413.004 311.215 410 310.363C400.125 307.561 381.006 300.225 386 320C368.043 323.302 380.853 293.561 367 292C366.179 296.442 368.973 303.361 367.114 306.907C363.798 313.233 355.422 312.694 354.689 321C353.599 333.356 367.942 328.63 372 322C378.299 335.895 398.239 324.566 408 320C410.723 333.371 425.393 328.57 433 323C439.226 334.9 467.789 327.947 479 328.001C483.425 328.022 490.998 330.637 494.258 326.682C500.309 319.342 490.319 311.698 489.742 305C489.32 300.116 494.947 294.872 495 289C487.777 289.576 490.673 296.487 484.941 298.763C481.987 299.936 478.214 298.228 475 298.915C464.744 301.107 450.521 310.396 448 321M528 322C534.5 331.924 541.592 328.486 550 323C558.889 339.992 582.806 319.116 572.991 304.059C571.359 301.556 566.741 298.303 564.747 302.315C561.831 308.179 571.595 311.818 567.897 317.772C561.493 328.082 555.844 312.956 550.941 313.801C546.088 314.637 541.437 322.926 536.225 319.353C529.798 314.947 530.94 303.598 529.852 297.044C529.463 294.702 527.367 291.471 524.559 293.137C519.73 296.003 525.23 302.246 523.829 305.985C520.844 313.948 509.222 313.008 511.232 323.945C512.992 333.519 525.402 327.718 528 322M44.6667 297.333L45.3333 297.667L44.6667 297.333M46.6667 298.333L47.3333 298.667L46.6667 298.333M48 299L49 300L48 299M49 300L48 306L49 306L49 300M429.299 301.851C425.52 303.293 427.639 309.767 431.586 308.288C435.376 306.867 433.466 300.261 429.299 301.851M546.213 301.851C542.38 303.211 543.83 309.354 547.896 308.248C552.169 307.087 550.757 300.239 546.213 301.851z"/>
<path style="fill:#ffffff; stroke:none;" d="M453 320L477 306C468.527 303.495 457.412 313.753 453 320z"/>
<path style="fill:#19172d; stroke:none;" d="M47 306L48 307L47 306M46 307L47 308L46 307M111 314C112.409 308.557 117.524 310.06 122 311.13C132.255 313.583 143.788 315.763 153 321L124 316L124 317L126 319L148 325L154 322C152.523 317.506 148.27 316.979 144 316L144 315L153 316L153 315L130 312C135.477 307.138 148.46 309.927 155 312L154 315L161 314C153.304 302.981 134.896 309.363 124.715 309.883C120.875 310.079 116.955 307.845 113.109 308.603C109.983 309.22 108.829 311.927 111 314M45 308L46 309L45 308M44 309L44 312L45 312L44 309z"/>
<path style="fill:#ce9c23; stroke:none;" d="M112.667 309.333L113.333 309.667L112.667 309.333M131 309L132 310L131 309z"/>
<path style="fill:#ffffff; stroke:none;" d="M131 312L154 314L154 312C148.859 310.075 134.465 306.975 131 312z"/>
<path style="fill:#ce9c23; stroke:none;" d="M134 309L135 310L134 309z"/>
<path style="fill:#ffffff; stroke:none;" d="M463 320L463 321L490 320C484.827 302.585 473.322 315.118 463 320M111 310C112.238 314.233 117.131 314.231 121 315.329C130.923 318.144 141.632 321 152 321C142.911 313.737 122.486 310.237 111 310z"/>
<path style="fill:#ce9c23; stroke:none;" d="M117 310L117 311L120 311L117 310M149.667 310.333L150.333 310.667L149.667 310.333M110.333 311.667L110.667 312.333L110.333 311.667M122.667 311.333L123.333 311.667L122.667 311.333M130 311L131 312L130 311M153 311L154 312L153 311M160 311L161 312L160 311z"/>
<path style="fill:#ffffff; stroke:none;" d="M160 312L167 313L160 312z"/>
<path style="fill:#ce9c23; stroke:none;" d="M165 311L166 312L165 311z"/>
<path style="fill:#19172d; stroke:none;" d="M166 311L167 312L166 311M45 312L47 315L45 312z"/>
<path style="fill:#ce9c23; stroke:none;" d="M126.667 312.333L127.333 312.667L126.667 312.333M133.667 312.333L134.333 312.667L133.667 312.333M142.667 312.333L143.333 312.667L142.667 312.333M154 312L155 313L154 312z"/>
<path style="fill:#19172d; stroke:none;" d="M167 312L168 313L167 312z"/>
<path style="fill:#ce9c23; stroke:none;" d="M111 313L111 314L114 314L111 313M130.667 313.333L131.333 313.667L130.667 313.333M137.667 313.333L138.333 313.667L137.667 313.333M146 313L147 314L146 313M161 313L162 314L161 313M165 313L166 314L165 313z"/>
<path style="fill:#19172d; stroke:none;" d="M166 313L167 314L166 313z"/>
<path style="fill:#ffffff; stroke:none;" d="M392 318L401 316C397.9 311.613 392.869 312.792 392 318z"/>
<path style="fill:#19172d; stroke:none;" d="M112 314L114 318L115 318L117 315L112 314z"/>
<path style="fill:#ce9c23; stroke:none;" d="M117 316L120 315L124 317C121.614 315.306 119.269 313.712 117 316M134 314L135 315L134 314M149 314L150 315L149 314M153 314L154 315L153 314z"/>
<path style="fill:#19172d; stroke:none;" d="M162 314L162 315L166 315L162 314M47 315L48 316L47 315z"/>
<path style="fill:#ce9c23; stroke:none;" d="M114 315L115 316L114 315z"/>
<path style="fill:#ffffff; stroke:none;" d="M115 315L117 350C125.113 342.914 121.896 330.905 119 322C141.027 316.77 150.741 333.086 146 353C137.187 347.773 129.413 348.491 120 352L120 353L148 355C149.092 346.369 153.363 331.766 146.347 324.51C140.288 318.243 123.319 317.304 115 315z"/>
<path style="fill:#19172d; stroke:none;" d="M119 315L119 317L121 317L119 315z"/>
<path style="fill:#ce9c23; stroke:none;" d="M137.667 315.333L138.333 315.667L137.667 315.333z"/>
<path style="fill:#19172d; stroke:none;" d="M48.6667 316.333L49.3333 316.667L48.6667 316.333z"/>
<path style="fill:#ce9c23; stroke:none;" d="M127 316L128 317L127 316M141 316L142 317L141 316z"/>
<path style="fill:#19172d; stroke:none;" d="M50.6667 317.333L51.3333 317.667L50.6667 317.333z"/>
<path style="fill:#ce9c23; stroke:none;" d="M126 317L127 318L126 317M133 317L134 318L133 317M144.667 317.333L145.333 317.667L144.667 317.333z"/>
<path style="fill:#ffffff; stroke:none;" d="M367 317L365 320L367 317M523 317L521 320L523 317z"/>
<path style="fill:#19172d; stroke:none;" d="M52 318L52 319L55 319L52 318z"/>
<path style="fill:#ce9c23; stroke:none;" d="M115 318L116 319L115 318M135 318L136 319L135 318M148 318L149 319L148 318z"/>
<path style="fill:#ffffff; stroke:none;" d="M623 322L629 322C627.604 317.799 624.396 317.799 623 322z"/>
<path style="fill:#19172d; stroke:none;" d="M55 319L55 320L64 320L55 319M115 319L116 320L115 319z"/>
<path style="fill:#ce9c23; stroke:none;" d="M128 319L128 320L131 320L128 319M136 319L136 320L139 320L136 319M150 319L151 320L150 319z"/>
<path style="fill:#19172d; stroke:none;" d="M64 320L64 321L67 321L64 320z"/>
<path style="fill:#ce9c23; stroke:none;" d="M135 320L136 321L135 320M142 320L143 321L142 320M152 320L153 321L152 320z"/>
<path style="fill:#19172d; stroke:none;" d="M67 321L67 322L72 322L67 321z"/>
<path style="fill:#ce9c23; stroke:none;" d="M116 321L117 322L116 321M119 324L120 324L129 322C125.302 320.449 121.279 320.485 119 324M140 321L141 322L140 321M146 321L146 322L152 322L146 321z"/>
<path style="fill:#19172d; stroke:none;" d="M72.3333 322.667L72.6667 323.333L72.3333 322.667M116.333 322.667L116.667 323.333L116.333 322.667M120 322L122.66 338L117 354C127.466 348.522 135.554 346.798 146 353C147.626 346.172 148.321 329.578 141.853 325.008C135.961 320.846 126.793 322 120 322z"/>
<path style="fill:#ce9c23; stroke:none;" d="M134.667 322.333L135.333 322.667L134.667 322.333M143 322L144 323L143 322z"/>
<path style="fill:#dd1116; stroke:none;" d="M121 323C124.108 332.556 124.655 339.508 121 349C130.176 347.764 136.116 346.38 145 350C145 343.775 146.549 332.543 142.258 327.43C137.982 322.335 126.975 323.001 121 323z"/>
<path style="fill:#ce9c23; stroke:none;" d="M139 323L140 324L139 323z"/>
<path style="fill:#19172d; stroke:none;" d="M73 324L73 328L74 328L73 324z"/>
<path style="fill:#ce9c23; stroke:none;" d="M117.333 324.667L117.667 325.333L117.333 324.667M141 324L142 325L141 324M143 325L144 326L143 325M147 325L148 326L147 325z"/>
<path style="fill:#19172d; stroke:none;" d="M117.333 326.667L117.667 327.333L117.333 326.667z"/>
<path style="fill:#ce9c23; stroke:none;" d="M120 326L121 327L120 326z"/>
<path style="fill:#19172d; stroke:none;" d="M148 326L149 327L148 326z"/>
<path style="fill:#ce9c23; stroke:none;" d="M148 327L149 328L148 327z"/>
<path style="fill:#19172d; stroke:none;" d="M173 327L170 335L172 333L173 333C173.21 339.349 176.932 342.561 183 344C185.368 337.304 179.715 329.177 173 327M74 328L74 340L75 340L74 328M149 328L149 331L150 331L149 328M399.6 329.046C396.215 331.569 399.897 337.448 403.397 334.215C406.291 331.54 402.964 326.539 399.6 329.046M568 332C556.176 328.614 563.095 342.531 568 335C579.553 338.068 573.306 322.956 568 332z"/>
<path style="fill:#ce9c23; stroke:none;" d="M118.333 329.667L118.667 330.333L118.333 329.667M121 329L122 330L121 329M145 329L145 332L146 332L145 329z"/>
<path style="fill:#19172d; stroke:none;" d="M118 331L118 342L119 342L118 331z"/>
<path style="fill:#ce9c23; stroke:none;" d="M149.333 331.667L149.667 332.333L149.333 331.667M174 332L174 337L175 337L174 332z"/>
<path style="fill:#ffffff; stroke:none;" d="M175 332L174 338L182 343C183.729 337.068 180.222 334.33 175 332z"/>
<path style="fill:#ce9c23; stroke:none;" d="M122 333L122 340L123 340L122 333z"/>
<path style="fill:#19172d; stroke:none;" d="M150 334L150 342L151 342L150 334z"/>
<path style="fill:#ce9c23; stroke:none;" d="M179 334L180 335L179 334M180 335L181 336L180 335M146 336L146 341L147 341L146 336z"/>
<path style="fill:#19172d; stroke:none;" d="M169 338L167 344L170 350L171 350L169 338z"/>
<path style="fill:#ce9c23; stroke:none;" d="M175 338L176 339L175 338M176 339L177 340L176 339z"/>
<path style="fill:#19172d; stroke:none;" d="M73.3333 340.667L73.6667 341.333L73.3333 340.667z"/>
<path style="fill:#ce9c23; stroke:none;" d="M179 341L180 342L179 341M182 341L183 342L182 341z"/>
<path style="fill:#19172d; stroke:none;" d="M72 342L73 343L72 342z"/>
<path style="fill:#ce9c23; stroke:none;" d="M118 342L119 343L118 342M180 342L181 343L180 342z"/>
<path style="fill:#19172d; stroke:none;" d="M68 344L68 345L72 344L68 344M93 349L93 348L91 344L116 344L116 348L117 348L118 344C111.209 341.993 102.083 342.416 95.0193 343.059C90.7073 343.451 89.2507 346.547 93 349z"/>
<path style="fill:#ce9c23; stroke:none;" d="M121 343L122 344L121 343z"/>
<path style="fill:#ffffff; stroke:none;" d="M91 344L101 371C87.4355 373.518 72.5883 364.909 60 371L61 375C72.5094 373.051 81.4771 376.254 93 376.79C98.8421 377.062 104.022 373.8 110 374.04C122.907 374.559 136.082 377.758 149 377.82C166.015 377.902 183.338 373.318 200 378C200.83 372.445 195.8 371.276 191 371.04C180.853 370.542 171.121 373 161 373L161 372C168.787 370.769 170.626 357.665 173 351L170 345L151 345L153 350C148.739 350.932 151.551 354.15 153 357C145.126 359.496 118.402 363.335 114.496 353.405C113.245 350.226 115.246 347.078 116 344L91 344z"/>
<path style="fill:#ce9c23; stroke:none;" d="M149 344L150 348L151 348L151 345L161 345L161 344L149 344z"/>
<path style="fill:#19172d; stroke:none;" d="M150 344L151 345L150 344z"/>
<path style="fill:#ce9c23; stroke:none;" d="M167 344L167 345L170 345L167 344z"/>
<path style="fill:#19172d; stroke:none;" d="M60 345L60 346L68 346L60 345M379 345L352 353L365 361L365 362L352 369L380 377L380 370L369 367L378 362L378 360L368 355L380 352L379 345M58.6667 346.333L59.3333 346.667L58.6667 346.333z"/>
<path style="fill:#ce9c23; stroke:none;" d="M117 346L118 347L117 346M120 346L121 347L120 346z"/>
<path style="fill:#19172d; stroke:none;" d="M149 346L149 351L150 351L149 346M382 346L382 362L393 362L393 376L400 376L400 362L410 362L410 346L403 346L403 355L390 355L390 346L382 346M423 346.532C401.098 351.75 412.49 380.078 433 375.61C455.005 370.816 443.611 341.622 423 346.532M449 346L449 376L477 376L477 370L456 370L456 352L476 352L476 346L449 346M498 346L498 376L505 376L505 346L498 346M526 346L526 376L555 376L555 370L533 370L533 364L537 364L537 369L543 369L543 364L549 364L549 358L543 358L543 354L537 354L537 358L533 358L533 352L555 352L555 346L526 346M580 346L580 376L588 376L588 346L580 346M593 346L593 352L600 352L600 370L593 370L593 376L615 376L615 370L607 370L607 352L615 352L615 346L593 346M57 347L58 348L57 347z"/>
<path style="fill:#ce9c23; stroke:none;" d="M115 347L116 348L115 347z"/>
<path style="fill:#19172d; stroke:none;" d="M56.3333 348.667L56.6667 349.333L56.3333 348.667z"/>
<path style="fill:#ce9c23; stroke:none;" d="M97 348L98 349L97 348z"/>
<path style="fill:#19172d; stroke:none;" d="M97 350L100 348L97 350M102 348L102 350L104 350L104 348L102 348z"/>
<path style="fill:#ce9c23; stroke:none;" d="M104 348L102 350L102 351C104.251 350.527 105.118 350.14 104 348M107 348L108 349L107 348z"/>
<path style="fill:#19172d; stroke:none;" d="M107 350L110 348L107 350z"/>
<path style="fill:#029fdd; stroke:none;" d="M114 348C114.905 364.009 141.681 359.899 153 357L149 351L148 356C138.45 351.773 127.032 351.008 117 354L117 348L114 348z"/>
<path style="fill:#ce9c23; stroke:none;" d="M119 348L120 349L119 348M132 348L132 349L137 349L132 348z"/>
<path style="fill:#029fdd; stroke:none;" d="M150.333 348.667L150.667 349.333L150.333 348.667z"/>
<path style="fill:#19172d; stroke:none;" d="M151.333 348.667L151.667 349.333L151.333 348.667z"/>
<path style="fill:#ce9c23; stroke:none;" d="M154 348L158 350L158 349L154 348z"/>
<path style="fill:#19172d; stroke:none;" d="M155 348L155 350L157 350L157 348L155 348z"/>
<path style="fill:#ce9c23; stroke:none;" d="M159 348L162 351L162 350L159 348z"/>
<path style="fill:#19172d; stroke:none;" d="M160 348L160 350L162 350L160 348z"/>
<path style="fill:#ce9c23; stroke:none;" d="M161 348L162 349L161 348M164 348L167 351L167 350L164 348z"/>
<path style="fill:#19172d; stroke:none;" d="M165 348L165 350L167 350L167 348L165 348z"/>
<path style="fill:#ce9c23; stroke:none;" d="M113 349L113 353L114 353L113 349M118 349L119 350L118 349M127 349L128 350L127 349M140 349L141 350L140 349M152 349L153 350L152 349z"/>
<path style="fill:#19172d; stroke:none;" d="M55 350L57 353L55 350z"/>
<path style="fill:#ce9c23; stroke:none;" d="M97 350L97 351L100 351L97 350M107 350L107 351L110 351L107 350M117 350L118 351L117 350M123 350L124 351L123 350M142 350L143 351L142 350M171 350L172 351L171 350z"/>
<path style="fill:#19172d; stroke:none;" d="M172 350L173 351L172 350z"/>
<path style="fill:#ce9c23; stroke:none;" d="M93 351L94 352L93 351M121 351L122 352L121 351M143 351L144 352L143 351M146 351L147 352L146 351M148 351L149 352L148 351z"/>
<path style="fill:#19172d; stroke:none;" d="M173.333 351.667L173.667 352.333L173.333 351.667z"/>
<path style="fill:#ffffff; stroke:none;" d="M427 351.654C413.737 352.904 415.999 371.419 429 370.357C442.52 369.253 440.135 350.415 427 351.654z"/>
<path style="fill:#19172d; stroke:none;" d="M93 352L94 353L93 352z"/>
<path style="fill:#ce9c23; stroke:none;" d="M117 352L118 353L117 352M119 352L120 353L119 352M124.667 352.333L125.333 352.667L124.667 352.333z"/>
<path style="fill:#19172d; stroke:none;" d="M127.667 352.333L128.333 352.667L127.667 352.333M133 352L134 353L133 352z"/>
<path style="fill:#ce9c23; stroke:none;" d="M135 352L135 353L138 353L135 352M144 352L145 353L144 352M150 352L151 353L150 352z"/>
<path style="fill:#19172d; stroke:none;" d="M57 353L58 354L57 353M94 353L95 360L96 360L94 353z"/>
<path style="fill:#ce9c23; stroke:none;" d="M141 353L142 354L141 353M172 353L173 354L172 353z"/>
<path style="fill:#19172d; stroke:none;" d="M58 354L60 371L58 354M115 354L116 355L115 354z"/>
<path style="fill:#ce9c23; stroke:none;" d="M144 354L145 355L144 354z"/>
<path style="fill:#19172d; stroke:none;" d="M172 354L173 355L172 354z"/>
<path style="fill:#dd1116; stroke:none;" d="M102.588 356.029C97.1905 360.13 101.879 369.686 107.015 371.347C118.204 374.965 128.922 371.782 140 372.133C146.681 372.346 153.041 376.424 158.775 370.772C160.853 368.723 166.504 356.653 159.906 356.636C156.585 356.627 154.266 361.3 150.981 362.276C143.319 364.553 131.861 363.62 124 362.576C120.518 362.113 116.306 362.223 113.133 360.567C109.856 358.857 107.181 352.538 102.588 356.029z"/>
<path style="fill:#19172d; stroke:none;" d="M147 355L148 356L147 355z"/>
<path style="fill:#ce9c23; stroke:none;" d="M160 355L161 356L160 355M170 355L171 356L170 355z"/>
<path style="fill:#19172d; stroke:none;" d="M171 355L172 356L171 355z"/>
<path style="fill:#ce9c23; stroke:none;" d="M109 356L110 357L109 356M115 356L116 357L115 356M157 356L158 357L157 356M162 356L163 357L162 356z"/>
<path style="fill:#19172d; stroke:none;" d="M169 356L170 357L169 356z"/>
<path style="fill:#ce9c23; stroke:none;" d="M100 357L100 360L101 360L100 357M116 357L117 358L116 357M151 357L152 358L151 357M156 357L157 358L156 357M163 357L164 358L163 357M123 358L123 359L126 359L123 358z"/>
<path style="fill:#19172d; stroke:none;" d="M127 358L128 359L127 358M142 358L142 359L145 359L142 358z"/>
<path style="fill:#ce9c23; stroke:none;" d="M146 358L146 359L149 359L146 358z"/>
<path style="fill:#19172d; stroke:none;" d="M163 358L163 361L164 361L163 358M169 358L169 363L170 363L169 358z"/>
<path style="fill:#ce9c23; stroke:none;" d="M110 359L111 360L110 359z"/>
<path style="fill:#19172d; stroke:none;" d="M100 360L101 361L100 360z"/>
<path style="fill:#ce9c23; stroke:none;" d="M111 360L112 361L111 360M155 360L156 361L155 360M115.667 361.333L116.333 361.667L115.667 361.333M154 361L155 362L154 361M163 361L164 362L163 361z"/>
<path style="fill:#19172d; stroke:none;" d="M563.019 361.742C551.852 366.197 562.329 379.276 571.895 374.991C582.675 370.161 572.334 358.027 563.019 361.742M623.044 361.742C611.835 366.306 622.517 378.936 631.956 375.106C643.13 370.573 632.569 357.865 623.044 361.742z"/>
<path style="fill:#ce9c23; stroke:none;" d="M96 362L97 363L96 362z"/>
<path style="fill:#19172d; stroke:none;" d="M123 362L124 363L123 362z"/>
<path style="fill:#ce9c23; stroke:none;" d="M124 362L124 363L127 363L124 362M149.667 362.333L150.333 362.667L149.667 362.333z"/>
<path style="fill:#19172d; stroke:none;" d="M96.3333 363.667L96.6667 364.333L96.3333 363.667M100 363L101 364L100 363z"/>
<path style="fill:#ce9c23; stroke:none;" d="M168.333 363.667L168.667 364.333L168.333 363.667M100.333 364.667L100.667 365.333L100.333 364.667M162 364L163 365L162 364M97 365L98 366L97 365z"/>
<path style="fill:#19172d; stroke:none;" d="M168.333 365.667L168.667 366.333L168.333 365.667M97 366L98 367L97 366z"/>
<path style="fill:#ffffff; stroke:none;" d="M564 370C573.654 371.595 566.611 362.123 564 370M624 367C626.16 370.868 628.84 370.868 631 367L624 367z"/>
<path style="fill:#ce9c23; stroke:none;" d="M98 367L99 368L98 367M101 367L102 368L101 367M161 367L162 368L161 367z"/>
<path style="fill:#19172d; stroke:none;" d="M64.6667 368.333L65.3333 368.667L64.6667 368.333z"/>
<path style="fill:#ce9c23; stroke:none;" d="M66 368L66 369L69 369L66 368M70.6667 368.333L71.3333 368.667L70.6667 368.333z"/>
<path style="fill:#19172d; stroke:none;" d="M72 368L72 369L75 369L72 368M98 368L99 369L98 368M167.333 368.667L167.667 369.333L167.333 368.667M61 369L62 370L61 369z"/>
<path style="fill:#ce9c23; stroke:none;" d="M62 369L63 370L62 369M76 369L77 370L76 369z"/>
<path style="fill:#19172d; stroke:none;" d="M77 369L77 370L80 370L77 369M99.3333 369.667L99.6667 370.333L99.3333 369.667M102 369L103 370L102 369z"/>
<path style="fill:#ce9c23; stroke:none;" d="M160 369L161 370L160 369M60 370L61 371L60 370M80.6667 370.333L81.3333 370.667L80.6667 370.333z"/>
<path style="fill:#19172d; stroke:none;" d="M82 370L82 371L86 371L82 370z"/>
<path style="fill:#ce9c23; stroke:none;" d="M100 370L101 371L100 370M104 370L105 371L104 370M159 370L160 371L159 370M166 370L167 371L166 370z"/>
<path style="fill:#19172d; stroke:none;" d="M178 370L178 371L183 371L178 370z"/>
<path style="fill:#ce9c23; stroke:none;" d="M183 370L183 371L191 371L183 370z"/>
<path style="fill:#19172d; stroke:none;" d="M191 370L191 371L195 371L191 370z"/>
<path style="fill:#ce9c23; stroke:none;" d="M86.6667 371.333L87.3333 371.667L86.6667 371.333z"/>
<path style="fill:#19172d; stroke:none;" d="M88 371L88 372L98 372L88 371z"/>
<path style="fill:#ce9c23; stroke:none;" d="M98 371L99 372L98 371M105.667 371.333L106.333 371.667L105.667 371.333M116.667 371.333L117.333 371.667L116.667 371.333z"/>
<path style="fill:#19172d; stroke:none;" d="M158 371L159 372L158 371z"/>
<path style="fill:#ce9c23; stroke:none;" d="M165 371L166 372L165 371z"/>
<path style="fill:#19172d; stroke:none;" d="M174.667 371.333L175.333 371.667L174.667 371.333z"/>
<path style="fill:#ce9c23; stroke:none;" d="M176.667 371.333L177.333 371.667L176.667 371.333M195 371L196 372L195 371z"/>
<path style="fill:#19172d; stroke:none;" d="M196.667 371.333L197.333 371.667L196.667 371.333M59 372L60 373L59 372z"/>
<path style="fill:#ce9c23; stroke:none;" d="M118 372L119 373L118 372M135 372L135 373L139 373L135 372M142.667 372.333L143.333 372.667L142.667 372.333M157 372L158 373L157 372M161 372L161 373L164 373L161 372z"/>
<path style="fill:#19172d; stroke:none;" d="M164 372L164 373L172 373L164 372z"/>
<path style="fill:#ce9c23; stroke:none;" d="M172 372L173 373L172 372M198.667 372.333L199.333 372.667L198.667 372.333M66.6667 373.333L67.3333 373.667L66.6667 373.333z"/>
<path style="fill:#029fdd; stroke:none;" d="M63 375L63 377C67.8401 378.711 71.1981 376.995 76 377.518C82.7576 378.253 89.0986 380.851 96 380.985C101.545 381.092 106.534 378.653 112 378.718C130.136 378.931 148.442 381.736 166.715 382.485C178.341 382.961 186.205 378.458 198 383L200 378L167 377.871L108 374.054L94 376.856L63 375z"/>
<path style="fill:#ce9c23; stroke:none;" d="M73 373L74 374L73 373M119.667 373.333L120.333 373.667L119.667 373.333M132 373L133 374L132 373M145.667 373.333L146.333 373.667L145.667 373.333M155 373L156 374L155 373M200 373L201 374L200 373z"/>
<path style="fill:#19172d; stroke:none;" d="M60 374L61 375L60 374z"/>
<path style="fill:#ce9c23; stroke:none;" d="M64 374L65 375L64 374M77 374L78 375L77 374M102.667 374.333L103.333 374.667L102.667 374.333M113.667 374.333L114.333 374.667L113.667 374.333M125 374L125 375L130 375L125 374z"/>
<path style="fill:#19172d; stroke:none;" d="M61 375L63 377L61 375z"/>
<path style="fill:#ce9c23; stroke:none;" d="M62 375L63 376L62 375M82.6667 375.333L83.3333 375.667L82.6667 375.333M118 375L119 376L118 375M132 375L132 376L136 376L132 375M182 375L182 376L188 376L182 375M89.6667 376.333L90.3333 376.667L89.6667 376.333M97 376L98 377L97 376M122 376L123 377L122 376M124.667 376.333L125.333 376.667L124.667 376.333M141 376L142 377L141 376M175 376L176 377L175 376M194 376L195 377L194 376z"/>
<path style="fill:#19172d; stroke:none;" d="M63.6667 377.333L64.3333 377.667L63.6667 377.333z"/>
<path style="fill:#ce9c23; stroke:none;" d="M71 377L72 378L71 377z"/>
<path style="fill:#ffffff; stroke:none;" d="M70 378L70 379C92.5123 386.504 111.853 384.151 135 384.179C145.593 384.192 156.211 386.786 167 386.657C177.567 386.53 185.129 383.757 196 386L197 382L167 382.541L111 379.016L99 381.617L70 378z"/>
<path style="fill:#ce9c23; stroke:none;" d="M145 377L146 378L145 377M152 377L153 378L152 377M163.667 377.333L164.333 377.667L163.667 377.333M171 377L172 378L171 377M198 377L199 378L198 377z"/>
<path style="fill:#19172d; stroke:none;" d="M65.6667 378.333L66.3333 378.667L65.6667 378.333z"/>
<path style="fill:#ce9c23; stroke:none;" d="M80 378L81 379L80 378M110 378L110 379L113 379L110 378z"/>
<path style="fill:#19172d; stroke:none;" d="M200 378L201 379L200 378M68 379L68 380L72 380L68 379z"/>
<path style="fill:#ce9c23; stroke:none;" d="M84 379L85 380L84 379M105 379L106 380L105 379M118 379L119 380L118 379M89.6667 380.333L90.3333 380.667L89.6667 380.333M103 380L104 381L103 380M122 380L123 381L122 380M130.667 380.333L131.333 380.667L130.667 380.333M139 380L140 381L139 380M177.667 380.333L178.333 380.667L177.667 380.333M191 380L192 381L191 380z"/>
<path style="fill:#19172d; stroke:none;" d="M199 380L200 381L199 380M73 381L75 385L76 385L73 381z"/>
<path style="fill:#ce9c23; stroke:none;" d="M74 381L74 382L77 382L74 381M96 381L96 382L102 382L96 381M143 381L144 382L143 381M156 381L156 382L160 382L156 381M173 381L174 382L173 381z"/>
<path style="fill:#19172d; stroke:none;" d="M14 382L13 387L15 383L18 383L20 387L19 382L14 382z"/>
<path style="fill:#029fdd; stroke:none;" d="M75 382C76.8335 387.637 77.5464 396.24 81.6489 400.683C83.8232 403.037 87.3019 402.984 89.4869 405.317C91.7566 407.741 91.7026 411.623 95.1443 412.928C104.056 416.308 118.308 409.597 127 407.44C133.368 405.859 138.67 409.179 145 408.956C150.473 408.764 155.48 405.601 161 406.224C173.537 407.639 184.339 407.363 197 405.718C199.609 405.379 207.404 405.993 208.824 403.397C211.815 397.93 195.632 392.878 195 387C183.52 382.156 169.105 386.967 157 387.001C129.94 387.077 101.4 387.449 75 382z"/>
<path style="fill:#19172d; stroke:none;" d="M77.6667 382.333L78.3333 382.667L77.6667 382.333z"/>
<path style="fill:#ce9c23; stroke:none;" d="M79 382L80 383L79 382M147 382L147 383L152 383L147 382M165 382L166 383L165 382z"/>
<path style="fill:#19172d; stroke:none;" d="M167 382L168 383L167 382z"/>
<path style="fill:#ce9c23; stroke:none;" d="M169 382L170 383L169 382z"/>
<path style="fill:#19172d; stroke:none;" d="M198 382L199 383L198 382M245 382L244 387L246 383L249 383L251 387L250 382L245 382z"/>
<path style="fill:#ce9c23; stroke:none;" d="M15 383L15 387L12 386L12 399L7 403L26 403L21 399L21 386L18 387L18 383L15 383z"/>
<path style="fill:#19172d; stroke:none;" d="M81.6667 383.333L82.3333 383.667L81.6667 383.333z"/>
<path style="fill:#ce9c23; stroke:none;" d="M83 383L84 384L83 383M246 383L246 387L243 386L243 399L238 403L256 402L256 399L252 399L252 386L249 387L249 383L246 383z"/>
<path style="fill:#19172d; stroke:none;" d="M5 384L5 385L11 385L5 384z"/>
<path style="fill:#ce9c23; stroke:none;" d="M11 384L5 385L5 386L11 384M21 384L28 386L28 385L21 384z"/>
<path style="fill:#19172d; stroke:none;" d="M22 384L22 385L28 385L22 384M85.6667 384.333L86.3333 384.667L85.6667 384.333z"/>
<path style="fill:#ce9c23; stroke:none;" d="M87.6667 384.333L88.3333 384.667L87.6667 384.333M104 384L105 385L104 384z"/>
<path style="fill:#19172d; stroke:none;" d="M105 384L105 385L110 385L105 384z"/>
<path style="fill:#ce9c23; stroke:none;" d="M110 384L110 385L113 385L110 384M131 384L131 385L139 385L131 384M177.667 384.333L178.333 384.667L177.667 384.333z"/>
<path style="fill:#19172d; stroke:none;" d="M179 384L179 385L189 385L179 384z"/>
<path style="fill:#ce9c23; stroke:none;" d="M189 384L190 385L189 384z"/>
<path style="fill:#19172d; stroke:none;" d="M197 384L198 385L197 384M236 384L236 385L242 385L236 384z"/>
<path style="fill:#ce9c23; stroke:none;" d="M242 384L236 385L236 386L242 384z"/>
<path style="fill:#19172d; stroke:none;" d="M252 384L252 385L259 385L252 384M89 385L89 386L92 386L89 385z"/>
<path style="fill:#ce9c23; stroke:none;" d="M92.6667 385.333L93.3333 385.667L92.6667 385.333M101 385L102 386L101 385z"/>
<path style="fill:#19172d; stroke:none;" d="M102 385L103 386L102 385M114 385L114 386L118 386L114 385z"/>
<path style="fill:#ce9c23; stroke:none;" d="M118 385L118 386L121 386L118 385M125.667 385.333L126.333 385.667L125.667 385.333z"/>
<path style="fill:#19172d; stroke:none;" d="M127 385L127 386L130 386L127 385M140 385L140 386L143 386L140 385z"/>
<path style="fill:#ce9c23; stroke:none;" d="M143 385L144 386L143 385M173 385L174 386L173 385z"/>
<path style="fill:#19172d; stroke:none;" d="M174 385L174 386L177 386L174 385M191.667 385.333L192.333 385.667L191.667 385.333z"/>
<path style="fill:#ce9c23; stroke:none;" d="M193 385L194 386L193 385z"/>
<path style="fill:#19172d; stroke:none;" d="M196 385L197 386L196 385z"/>
<path style="fill:#ce9c23; stroke:none;" d="M252 385L252 386L259 386L252 385z"/>
<path style="fill:#19172d; stroke:none;" d="M76 386L76 389L77 389L76 386M95 386L95 387L101 387L95 386M144.667 386.333L145.333 386.667L144.667 386.333z"/>
<path style="fill:#ce9c23; stroke:none;" d="M146.667 386.333L147.333 386.667L146.667 386.333M151 386L152 387L151 386z"/>
<path style="fill:#19172d; stroke:none;" d="M152 386L152 387L164 387L152 386z"/>
<path style="fill:#ce9c23; stroke:none;" d="M164 386L165 387L164 386M169.667 386.333L170.333 386.667L169.667 386.333z"/>
<path style="fill:#19172d; stroke:none;" d="M171 386L172 387L171 386M194 386L196 388L196 386L194 386M148.667 387.333L149.333 387.667L148.667 387.333M166 387L166 388L169 388L166 387M194.333 388.667L194.667 389.333L194.333 388.667M77 389L77 394L78 394L77 389M195 390L195 392L197 392L195 390M197.667 392.333L198.333 392.667L197.667 392.333M199.667 393.333L200.333 393.667L199.667 393.333z"/>
<path style="fill:#ffffff; stroke:none;" d="M0 394L0 471L130 471C125.9 460.418 115.408 455.919 105 453.662C84.2875 449.17 62.6185 451.285 42 446.105C24.8551 441.798 10.0052 431.12 4.07947 414C1.86219 407.594 2.52891 400.024 0 394z"/>
<path style="fill:#19172d; stroke:none;" d="M78 394L78 397L79 397L78 394M201.667 394.333L202.333 394.667L201.667 394.333M203.667 395.333L204.333 395.667L203.667 395.333M205 396L210 401L205 396M79 397C80.284 403.289 84.2988 403.921 90 405L90 404L79 397M12 399L13 400L12 399M20 399L21 400L20 399M243 399L244 400L243 399M251 399L252 400L251 399M210 401C207.393 405.729 202.884 404.999 198 405L198 406L211 406L210 401M8 402L8 403L25 403L8 402M239 402L239 403L256 403L239 402M90 405L90 408L91 408L90 405M126 407L126 408L133 407L126 407M155 406L155 407L166 408L155 406M190 406L190 407L198 407L190 406M133 407L133 408L139 409L133 407M152 407L152 408L155 408L152 407M166 408L166 409L190 408L166 408M91 408L91 412L92 412L91 408M123 408L123 409L126 409L123 408M149 408L149 409L152 409L149 408M107 412L107 413L123 410L107 412M139 409L139 410L149 410L139 409M353 411L343 427L349 427C348.169 433.539 344.065 443.777 347.319 449.941C350.732 456.408 361.412 455.552 362 448C351.829 445.922 357.054 434.443 358 427L367 427L368 420L359 420L360 411L353 411M92 412L93 413L92 412M93 413L93 414L107 414L93 413M391 452C392.905 454.18 396.599 454.767 398.272 451.682C400.69 447.224 404.24 428.726 401.883 424.228C399.871 420.389 393.755 420.107 390 420.015C380.935 419.793 373.872 421.709 370.549 431C367.384 439.848 367.188 455.053 380 454.733C383.743 454.639 387.475 453.127 391 452M410 421L405 454C420.533 453.945 410.86 438.878 418.589 430.649C429.415 419.121 429.693 436.404 428.586 443C427.972 446.661 427.292 450.299 427 454L436 454C436.632 446.001 444.202 427.728 436.606 421.858C431.065 417.577 416.835 421.071 410 421M464 453C462.558 457.116 461.544 461.661 456.985 463.397C450.612 465.822 440.75 460.379 440 470C447.622 470.005 457.891 473.293 464.957 469.543C470.036 466.848 471.18 461.173 472.196 456C474.412 444.721 475.872 433.297 478 422C470.138 420.106 457.223 417.373 450.185 422.703C443.112 428.06 439.103 446.354 447.133 452.411C451.921 456.022 458.719 454.301 464 453M510 447C503.07 447.019 490.172 451.418 490 441C495.905 442.745 503.907 442.621 508.942 438.57C513.905 434.578 516.062 426.039 509.891 422.09C492.769 411.131 471.416 434.94 482.742 450.867C488.434 458.869 507.888 456.45 510 447M529 424C528.146 420.013 524.511 421 521 421L516 454C533.935 453.937 520.273 424.791 544 429L545 420L529 424M570 424C569.146 420.013 565.511 421 562 421L557 454L566 454C566.491 447.789 566.702 436.251 570.6 431.225C572.805 428.38 578.56 425.801 581.307 429.333C585.001 434.082 579.716 448.364 579 454L588 454C588.809 447.631 588.822 436.446 592.742 431.225C594.969 428.257 601.304 425.539 603.968 429.438C607.47 434.562 602.05 447.898 602 454C604.201 453.992 607.41 454.462 609.258 452.972C613.805 449.307 615.814 427.843 612.258 423.279C607.261 416.866 599.092 421.793 593 422.465C583.835 423.477 579.514 418.592 570 424M647 454C647.606 446.339 653.648 431.437 650.393 424.394C648.549 420.405 641.736 420.102 638 420.015C626.815 419.754 619.92 424.729 617.924 436C616.623 443.341 616.757 452.972 626 454.641C632.147 455.751 640.513 453.933 647 454z"/>
<path style="fill:#ffffff; stroke:none;" d="M393 427C390.113 427.002 386.777 426.63 384.044 427.742C379.082 429.762 374.856 440.956 378.873 445.397C381.965 448.816 389.248 446.673 390.852 442.786C391.715 440.694 391.886 438.217 392.246 436C392.737 432.979 392.975 430.058 393 427M468 427C464.864 427 461.058 426.489 458.105 427.742C453.12 429.858 449.199 442.102 453.603 446.243C456.574 449.036 463.375 447.4 464.971 443.852C465.909 441.767 466.172 439.233 466.576 437C467.176 433.68 467.734 430.362 468 427M491 435C497.238 434.996 503.467 435.204 505 428C498.231 426.393 492.54 427.434 491 435M632.055 428.028C623.425 432.689 624.439 452.883 636.852 445.543C643.35 441.701 644.146 421.497 632.055 428.028z"/>
<path style="fill:#19172d; stroke:none;" d="M540 454L549 454L550 446C543.08 446.005 540.089 446.477 540 454z"/>
</svg>
